<?xml version="1.0" encoding="UTF-8" standalone="no"?>
<!-- Created with Inkscape (http://www.inkscape.org/) -->

<svg
   xmlns:dc="http://purl.org/dc/elements/1.1/"
   xmlns:cc="http://creativecommons.org/ns#"
   xmlns:rdf="http://www.w3.org/1999/02/22-rdf-syntax-ns#"
   xmlns:svg="http://www.w3.org/2000/svg"
   xmlns="http://www.w3.org/2000/svg"
   xmlns:xlink="http://www.w3.org/1999/xlink"
   xmlns:sodipodi="http://sodipodi.sourceforge.net/DTD/sodipodi-0.dtd"
   xmlns:inkscape="http://www.inkscape.org/namespaces/inkscape"
   width="44"
   height="88"
   id="svg3995"
   version="1.1"
   inkscape:version="0.48.4 r9939"
   sodipodi:docname="phone.svg">
  <defs
     id="defs3997" />
  <sodipodi:namedview
     id="base"
     pagecolor="#ffffff"
     bordercolor="#666666"
     borderopacity="1.0"
     inkscape:pageopacity="0.0"
     inkscape:pageshadow="2"
     inkscape:zoom="6.1871843"
     inkscape:cx="11.209601"
     inkscape:cy="42.835821"
     inkscape:document-units="px"
     inkscape:current-layer="layer1"
     showgrid="false"
     inkscape:window-width="1165"
     inkscape:window-height="807"
     inkscape:window-x="2000"
     inkscape:window-y="208"
     inkscape:window-maximized="0" />
  <metadata
     id="metadata4000">
    <rdf:RDF>
      <cc:Work
         rdf:about="">
        <dc:format>image/svg+xml</dc:format>
        <dc:type
           rdf:resource="http://purl.org/dc/dcmitype/StillImage" />
        <dc:title />
      </cc:Work>
    </rdf:RDF>
  </metadata>
  <g
     inkscape:label="Layer 1"
     inkscape:groupmode="layer"
     id="layer1"
     transform="translate(0,-964.3622)">
    <rect
       style="color:#000000;fill:#142546;fill-opacity:0.35638297;fill-rule:nonzero;stroke:none;stroke-width:2.09999989999999980;marker:none;visibility:visible;display:inline;overflow:visible;enable-background:accumulate"
       id="rect2996"
       width="40"
       height="40"
       x="2"
       y="1010.3622"
       ry="3" />
    <g
       id="g2989">
      <path
         sodipodi:nodetypes="zsssssssssssssssssssssz"
         inkscape:connector-curvature="0"
         id="path3110"
         d="m 20.419217,1033.8611 c 2.27262,2.0155 5.29211,3.3855 5.62906,3.6101 0.53607,0.3574 1.24924,0.3669 1.92589,-0.4765 0.47231,-0.5887 1.80147,-2.2235 2.30313,-2.8392 0.4368,-0.5361 0.81404,-0.953 1.76706,-0.4765 0.95302,0.4765 5.35761,2.6263 5.91666,2.9385 0.92095,0.5142 1.07896,1.2193 0.97628,2.0881 -0.1134,0.9595 -0.31465,1.5691 -0.39888,1.9341 -0.0842,0.365 -0.42118,1.0389 -0.89852,1.432 -0.47734,0.3931 -1.09965,1.2998 -2.97633,1.9936 -1.11612,0.4126 -2.69555,0.9547 -4.8576,0.4773 -2.16205,-0.4773 -6.7727,-1.5173 -10.86642,-4.6329 -6.34576,-4.8295 -9.3308496,-10.0428 -10.3632896,-12.743 -1.0324399,-2.7002 -1.7105099,-4.1603 -1.3735599,-5.9574 0.33694,-1.797 2.0346999,-4.4032 2.8208995,-4.9648 0.7862,-0.5615 0.66841,-0.7562 1.79703,-0.7731 1.11322,-0.017 1.4672,0 1.94536,0 0.36813,0 0.92547,-0.074 1.29049,0.656 0.36502,0.73 2.59146,5.8945 2.81609,6.3999 0.22463,0.5054 0.16847,1.2355 -0.33695,1.8813 -0.50541,0.6458 -1.62855,1.9655 -1.93742,2.2744 -0.30887,0.3088 -0.42118,1.2354 0.0281,1.8531 0.44926,0.6178 2.52031,3.3078 4.79294,5.3233 z"
         style="fill:#000000;fill-opacity:0.62234042;stroke:none" />
      <path
         style="fill:#ffffff;fill-opacity:0.62234042;stroke:none"
         d="m 20.419217,1035.8057 c 2.27262,2.0154 5.29211,3.3855 5.62906,3.6101 0.53607,0.3574 1.24924,0.3669 1.92589,-0.4765 0.47231,-0.5887 1.80147,-2.2235 2.30313,-2.8392 0.4368,-0.5361 0.81404,-0.953 1.76706,-0.4765 0.95302,0.4765 5.35761,2.6263 5.91666,2.9385 0.92095,0.5142 1.07896,1.2193 0.97628,2.0881 -0.1134,0.9595 -0.31465,1.5691 -0.39888,1.9341 -0.0842,0.365 -0.42118,1.0389 -0.89852,1.432 -0.47734,0.3931 -1.09965,1.2998 -2.97633,1.9936 -1.11612,0.4126 -2.69555,0.9547 -4.8576,0.4773 -2.16205,-0.4773 -6.7727,-1.5174 -10.86642,-4.6329 -6.34576,-4.8296 -9.3308496,-10.0428 -10.3632896,-12.743 -1.0324399,-2.7002 -1.7105099,-4.1604 -1.3735599,-5.9574 0.33694,-1.797 2.0346999,-4.4032 2.8208995,-4.9648 0.7862,-0.5616 0.66841,-0.7562 1.79703,-0.7731 1.11322,-0.017 1.4672,0 1.94536,0 0.36813,0 0.92547,-0.074 1.29049,0.656 0.36502,0.73 2.59146,5.8945 2.81609,6.3999 0.22463,0.5054 0.16847,1.2355 -0.33695,1.8813 -0.50541,0.6458 -1.62855,1.9655 -1.93742,2.2743 -0.30887,0.3089 -0.42118,1.2355 0.0281,1.8532 0.44926,0.6178 2.52031,3.3078 4.79294,5.3233 z"
         id="path3948"
         inkscape:connector-curvature="0"
         sodipodi:nodetypes="zsssssssssssssssssssssz" />
      <path
         style="fill:#979797;fill-opacity:1;stroke:none"
         d="m 20.419217,1034.8611 c 2.27262,2.0155 5.29211,3.3855 5.62906,3.6101 0.53607,0.3574 1.24924,0.3669 1.92589,-0.4765 0.47231,-0.5887 1.80147,-2.2235 2.30313,-2.8392 0.4368,-0.5361 0.81404,-0.953 1.76706,-0.4765 0.95302,0.4765 5.35761,2.6263 5.91666,2.9385 0.92095,0.5142 1.07896,1.2193 0.97628,2.0881 -0.1134,0.9595 -0.31465,1.5691 -0.39888,1.9341 -0.0842,0.365 -0.42118,1.0389 -0.89852,1.432 -0.47734,0.3931 -1.09965,1.2998 -2.97633,1.9936 -1.11612,0.4126 -2.69555,0.9547 -4.8576,0.4773 -2.16205,-0.4773 -6.7727,-1.5173 -10.86642,-4.6329 -6.34576,-4.8295 -9.3308496,-10.0428 -10.3632896,-12.743 -1.0324399,-2.7002 -1.7105099,-4.1603 -1.3735599,-5.9574 0.33694,-1.797 2.0346999,-4.4032 2.8208995,-4.9648 0.7862,-0.5615 0.66841,-0.7562 1.79703,-0.7731 1.11322,-0.017 1.4672,0 1.94536,0 0.36813,0 0.92547,-0.074 1.29049,0.656 0.36502,0.73 2.59146,5.8945 2.81609,6.3999 0.22463,0.5054 0.16847,1.2355 -0.33695,1.8813 -0.50541,0.6458 -1.62855,1.9655 -1.93742,2.2744 -0.30887,0.3088 -0.42118,1.2354 0.0281,1.8531 0.44926,0.6178 2.52031,3.3078 4.79294,5.3233 z"
         id="path3946"
         inkscape:connector-curvature="0"
         sodipodi:nodetypes="zsssssssssssssssssssssz" />
    </g>
    <use
       x="0"
       y="0"
       xlink:href="#g2989"
       id="use2994"
       transform="translate(0,-44.000465)"
       width="44"
       height="88" />
  </g>
</svg>
