<?xml version="1.0" encoding="UTF-8" standalone="no"?>
<!-- Created with Inkscape (http://www.inkscape.org/) -->

<svg
   xmlns:dc="http://purl.org/dc/elements/1.1/"
   xmlns:cc="http://creativecommons.org/ns#"
   xmlns:rdf="http://www.w3.org/1999/02/22-rdf-syntax-ns#"
   xmlns:svg="http://www.w3.org/2000/svg"
   xmlns="http://www.w3.org/2000/svg"
   xmlns:sodipodi="http://sodipodi.sourceforge.net/DTD/sodipodi-0.dtd"
   xmlns:inkscape="http://www.inkscape.org/namespaces/inkscape"
   width="400"
   height="600"
   id="svg4960"
   version="1.1"
   inkscape:version="0.48.4 r9939"
   sodipodi:docname="pin.svg">
  <defs
     id="defs4962">
    <filter
       inkscape:collect="always"
       id="filter3801"
       x="-0.26880771"
       width="1.5376154"
       y="-0.50535846"
       height="2.0107169"
       color-interpolation-filters="sRGB">
      <feGaussianBlur
         inkscape:collect="always"
         stdDeviation="1.3293989"
         id="feGaussianBlur3803" />
    </filter>
  </defs>
  <sodipodi:namedview
     id="base"
     pagecolor="#ffffff"
     bordercolor="#666666"
     borderopacity="1.0"
     inkscape:pageopacity="0.0"
     inkscape:pageshadow="2"
     inkscape:zoom="0.45470745"
     inkscape:cx="48.085052"
     inkscape:cy="280.78686"
     inkscape:document-units="px"
     inkscape:current-layer="layer1"
     showgrid="false"
     inkscape:window-width="708"
     inkscape:window-height="514"
     inkscape:window-x="551"
     inkscape:window-y="195"
     inkscape:window-maximized="0" />
  <metadata
     id="metadata4965">
    <rdf:RDF>
      <cc:Work
         rdf:about="">
        <dc:format>image/svg+xml</dc:format>
        <dc:type
           rdf:resource="http://purl.org/dc/dcmitype/StillImage" />
        <dc:title></dc:title>
      </cc:Work>
    </rdf:RDF>
  </metadata>
  <g
     inkscape:label="Layer 1"
     inkscape:groupmode="layer"
     id="layer1"
     transform="translate(0,-452.3622)">
    <path
       inkscape:connector-curvature="0"
       style="fill:#0f335d;fill-opacity:1;stroke:none"
       d="M 202.48102,452.3622 C 91.010562,452.3622 0,539.07311 0,645.05129 0,685.48765 0.62945236,718.0022 35.620207,776.96038 92.368464,872.5822 198.47944,1052.3622 198.47944,1052.3622 c 0,0 90.45051,-161.60364 156.3212,-267.63091 C 399.1274,713.38038 400,692.87675 400,648.99675 400,539.09493 313.95144,452.3622 202.48102,452.3622 z m -1.76073,71.01636 c 69.54462,0 126.60949,54.10546 129.33178,122.62 l 0.16,5.04909 c 0,70.51091 -57.97505,127.67091 -129.4918,127.67091 -71.51672,0 -129.491781,-57.16 -129.491781,-127.67091 0,-70.51272 57.975061,-127.66909 129.491781,-127.66909 z"
       id="path4432"
       sodipodi:nodetypes="zsscsszsccssss" />
  </g>
</svg>
