<?xml version="1.0" encoding="UTF-8" standalone="no"?>
<!-- Created with Inkscape (http://www.inkscape.org/) -->

<svg
   xmlns:dc="http://purl.org/dc/elements/1.1/"
   xmlns:cc="http://creativecommons.org/ns#"
   xmlns:rdf="http://www.w3.org/1999/02/22-rdf-syntax-ns#"
   xmlns:svg="http://www.w3.org/2000/svg"
   xmlns="http://www.w3.org/2000/svg"
   xmlns:xlink="http://www.w3.org/1999/xlink"
   xmlns:sodipodi="http://sodipodi.sourceforge.net/DTD/sodipodi-0.dtd"
   xmlns:inkscape="http://www.inkscape.org/namespaces/inkscape"
   width="44"
   height="88"
   id="svg3995"
   version="1.1"
   inkscape:version="0.48.4 r9939"
   sodipodi:docname="refresh.svg">
  <defs
     id="defs3997" />
  <sodipodi:namedview
     id="base"
     pagecolor="#ffffff"
     bordercolor="#666666"
     borderopacity="1.0"
     inkscape:pageopacity="0.0"
     inkscape:pageshadow="2"
     inkscape:zoom="6.1871843"
     inkscape:cx="47.310908"
     inkscape:cy="43.593487"
     inkscape:document-units="px"
     inkscape:current-layer="layer1"
     showgrid="false"
     inkscape:window-width="1165"
     inkscape:window-height="807"
     inkscape:window-x="2000"
     inkscape:window-y="208"
     inkscape:window-maximized="0" />
  <metadata
     id="metadata4000">
    <rdf:RDF>
      <cc:Work
         rdf:about="">
        <dc:format>image/svg+xml</dc:format>
        <dc:type
           rdf:resource="http://purl.org/dc/dcmitype/StillImage" />
        <dc:title />
      </cc:Work>
    </rdf:RDF>
  </metadata>
  <g
     inkscape:label="Layer 1"
     inkscape:groupmode="layer"
     id="layer1"
     transform="translate(0,-964.3622)">
    <rect
       style="color:#000000;fill:#142546;fill-opacity:0.35638296;fill-rule:nonzero;stroke:none;stroke-width:2.0999999;marker:none;visibility:visible;display:inline;overflow:visible;enable-background:accumulate"
       id="rect2996"
       width="40"
       height="40"
       x="2"
       y="1010.3622"
       ry="3" />
    <g
       id="g3789">
      <path
         style="font-size:medium;font-style:normal;font-variant:normal;font-weight:normal;font-stretch:normal;text-indent:0;text-align:start;text-decoration:none;line-height:normal;letter-spacing:normal;word-spacing:normal;text-transform:none;direction:ltr;block-progression:tb;writing-mode:lr-tb;text-anchor:start;baseline-shift:baseline;color:#000000;fill:#000000;fill-opacity:0.64117647;stroke:none;stroke-width:3;marker:none;visibility:visible;display:inline;overflow:visible;enable-background:accumulate;font-family:Sans;-inkscape-font-specification:Sans"
         d="m 22.883968,973.8629 c -7.70369,0 -14.15902,6.0049 -14.15902,13.5153 0,7.5106 6.45533,13.5154 14.15902,13.5154 7.7037,0 14.10537,-6.0048 14.10537,-13.5154 l -5.14873,0 c 0,4.5668 -3.88305,8.3667 -8.95664,8.3667 -5.07358,0 -9.01028,-3.7999 -9.01028,-8.3667 0,-4.5665 3.9367,-8.3666 9.01028,-8.3666 l 0,4.3096 8.19925,-6.884 -8.19925,-7.1235 z"
         id="path3905"
         inkscape:connector-curvature="0"
         sodipodi:nodetypes="cssccssccccc" />
      <path
         sodipodi:nodetypes="cssccssccccc"
         inkscape:connector-curvature="0"
         id="path3952"
         d="m 22.883968,975.8075 c -7.70369,0 -14.15902,6.0049 -14.15902,13.5153 0,7.5106 6.45533,13.5154 14.15902,13.5154 7.7037,0 14.10537,-6.0048 14.10537,-13.5154 l -5.14873,0 c 0,4.5667 -3.88305,8.3667 -8.95664,8.3667 -5.07358,0 -9.01028,-3.8 -9.01028,-8.3667 0,-4.5666 3.9367,-8.3666 9.01028,-8.3666 l 0,4.3096 8.19925,-6.884 -8.19925,-7.1235 z"
         style="font-size:medium;font-style:normal;font-variant:normal;font-weight:normal;font-stretch:normal;text-indent:0;text-align:start;text-decoration:none;line-height:normal;letter-spacing:normal;word-spacing:normal;text-transform:none;direction:ltr;block-progression:tb;writing-mode:lr-tb;text-anchor:start;baseline-shift:baseline;color:#000000;fill:#ffffff;fill-opacity:0.64117647;stroke:none;stroke-width:3;marker:none;visibility:visible;display:inline;overflow:visible;enable-background:accumulate;font-family:Sans;-inkscape-font-specification:Sans" />
      <path
         sodipodi:nodetypes="cssccssccccc"
         inkscape:connector-curvature="0"
         id="path3105"
         d="m 22.883968,974.872 c -7.70369,0 -14.15902,6.0049 -14.15902,13.5153 0,7.5107 6.45533,13.5155 14.15902,13.5155 7.7037,0 14.10537,-6.0048 14.10537,-13.5155 l -5.14873,0 c 0,4.5668 -3.88305,8.3667 -8.95664,8.3667 -5.07358,0 -9.01028,-3.7999 -9.01028,-8.3667 0,-4.5665 3.9367,-8.3666 9.01028,-8.3666 l 0,4.3097 8.19925,-6.884 -8.19925,-7.1236 z"
         style="font-size:medium;font-style:normal;font-variant:normal;font-weight:normal;font-stretch:normal;text-indent:0;text-align:start;text-decoration:none;line-height:normal;letter-spacing:normal;word-spacing:normal;text-transform:none;direction:ltr;block-progression:tb;writing-mode:lr-tb;text-anchor:start;baseline-shift:baseline;color:#000000;fill:#a4a4a4;fill-opacity:1;stroke:none;stroke-width:3;marker:none;visibility:visible;display:inline;overflow:visible;enable-background:accumulate;font-family:Sans;-inkscape-font-specification:Sans" />
    </g>
    <use
       x="0"
       y="0"
       xlink:href="#g3789"
       id="use3794"
       transform="translate(0,44)"
       width="44"
       height="88" />
  </g>
</svg>
