<?xml version="1.0" encoding="UTF-8" standalone="no"?>
<!-- Created with Inkscape (http://www.inkscape.org/) -->

<svg
   xmlns:dc="http://purl.org/dc/elements/1.1/"
   xmlns:cc="http://creativecommons.org/ns#"
   xmlns:rdf="http://www.w3.org/1999/02/22-rdf-syntax-ns#"
   xmlns:svg="http://www.w3.org/2000/svg"
   xmlns="http://www.w3.org/2000/svg"
   xmlns:xlink="http://www.w3.org/1999/xlink"
   xmlns:sodipodi="http://sodipodi.sourceforge.net/DTD/sodipodi-0.dtd"
   xmlns:inkscape="http://www.inkscape.org/namespaces/inkscape"
   width="144"
   height="144"
   id="svg3805"
   version="1.1"
   inkscape:version="0.48.4 r9939"
   sodipodi:docname="android2.svg">
  <sodipodi:namedview
     id="base"
     pagecolor="#ffffff"
     bordercolor="#666666"
     borderopacity="1.0"
     inkscape:pageopacity="0.70196078"
     inkscape:pageshadow="2"
     inkscape:zoom="1.4142136"
     inkscape:cx="68.411527"
     inkscape:cy="137.31271"
     inkscape:document-units="px"
     inkscape:current-layer="layer3"
     showgrid="false"
     inkscape:window-width="1042"
     inkscape:window-height="819"
     inkscape:window-x="2108"
     inkscape:window-y="32"
     inkscape:window-maximized="0" />
  <defs
     id="defs3807">
    <linearGradient
       id="linearGradient4492">
      <stop
         style="stop-color:#0a1624;stop-opacity:1"
         offset="0"
         id="stop4494" />
      <stop
         style="stop-color:#9bbce3;stop-opacity:1"
         offset="1"
         id="stop4496" />
    </linearGradient>
    <linearGradient
       id="linearGradient4450">
      <stop
         id="stop4452"
         offset="0"
         style="stop-color:#1b5490;stop-opacity:1" />
      <stop
         id="stop4454"
         offset="1"
         style="stop-color:#26aae1;stop-opacity:1" />
    </linearGradient>
    <linearGradient
       id="linearGradient4434">
      <stop
         style="stop-color:#000000;stop-opacity:1;"
         offset="0"
         id="stop4436" />
      <stop
         style="stop-color:#000000;stop-opacity:0;"
         offset="1"
         id="stop4438" />
    </linearGradient>
    <linearGradient
       id="linearGradient4413">
      <stop
         style="stop-color:#ffffff;stop-opacity:1;"
         offset="0"
         id="stop4415" />
      <stop
         style="stop-color:#ffffff;stop-opacity:0;"
         offset="1"
         id="stop4417" />
    </linearGradient>
    <linearGradient
       id="linearGradient4397">
      <stop
         style="stop-color:#ffffff;stop-opacity:0.33725491;"
         offset="0"
         id="stop4399" />
      <stop
         id="stop4407"
         offset="0.62"
         style="stop-color:#ffffff;stop-opacity:0.29411766;" />
      <stop
         id="stop4405"
         offset="0.63"
         style="stop-color:#000000;stop-opacity:0.23529412;" />
      <stop
         style="stop-color:#ffffff;stop-opacity:0;"
         offset="1"
         id="stop4401" />
    </linearGradient>
    <linearGradient
       id="linearGradient4383">
      <stop
         style="stop-color:#002f6f;stop-opacity:1;"
         offset="0"
         id="stop4385" />
      <stop
         style="stop-color:#00b7e4;stop-opacity:1;"
         offset="1"
         id="stop4387" />
    </linearGradient>
    <filter
       inkscape:collect="always"
       id="filter4350"
       x="-0.099518239"
       width="1.1990365"
       y="-0.18709428"
       height="1.3741886">
      <feGaussianBlur
         inkscape:collect="always"
         stdDeviation="0.49217128"
         id="feGaussianBlur4352" />
    </filter>
    <filter
       inkscape:collect="always"
       id="filter4376"
       x="-0.16173913"
       width="1.3234783"
       y="-0.16173913"
       height="1.3234783">
      <feGaussianBlur
         inkscape:collect="always"
         stdDeviation="5.5188811"
         id="feGaussianBlur4378" />
    </filter>
    <linearGradient
       inkscape:collect="always"
       xlink:href="#linearGradient4492"
       id="linearGradient4498"
       x1="98.61322"
       y1="73.03064"
       x2="51.47982"
       y2="21.122677"
       gradientUnits="userSpaceOnUse"
       gradientTransform="translate(24,0)" />
    <linearGradient
       id="linearGradient4492-1">
      <stop
         style="stop-color:#525252;stop-opacity:1;"
         offset="0"
         id="stop4494-6" />
      <stop
         style="stop-color:#ffffff;stop-opacity:0;"
         offset="1"
         id="stop4496-8" />
    </linearGradient>
    <linearGradient
       gradientTransform="translate(-37.59375,-13.78125)"
       y2="31.0625"
       x2="108.21964"
       y1="31.0625"
       x1="37.59375"
       gradientUnits="userSpaceOnUse"
       id="linearGradient4515"
       xlink:href="#linearGradient4492-1"
       inkscape:collect="always" />
    <linearGradient
       inkscape:collect="always"
       xlink:href="#linearGradient4492"
       id="linearGradient4539"
       x1="58.4375"
       y1="32.90625"
       x2="85.90625"
       y2="66.40625"
       gradientUnits="userSpaceOnUse"
       gradientTransform="translate(24,0)" />
    <linearGradient
       inkscape:collect="always"
       xlink:href="#linearGradient4492"
       id="linearGradient5117"
       gradientUnits="userSpaceOnUse"
       gradientTransform="translate(26,0)"
       x1="58.4375"
       y1="32.90625"
       x2="85.90625"
       y2="66.40625" />
    <linearGradient
       inkscape:collect="always"
       xlink:href="#linearGradient4492"
       id="linearGradient5119"
       gradientUnits="userSpaceOnUse"
       gradientTransform="translate(26,0)"
       x1="98.61322"
       y1="73.03064"
       x2="51.47982"
       y2="21.122677" />
  </defs>
  <metadata
     id="metadata3810">
    <rdf:RDF>
      <cc:Work
         rdf:about="">
        <dc:format>image/svg+xml</dc:format>
        <dc:type
           rdf:resource="http://purl.org/dc/dcmitype/StillImage" />
        <dc:title />
      </cc:Work>
    </rdf:RDF>
  </metadata>
  <g
     inkscape:label="Layer 1"
     inkscape:groupmode="layer"
     id="layer1"
     transform="translate(0,-908.36218)" />
  <g
     inkscape:groupmode="layer"
     id="layer4"
     inkscape:label="shadow"
     sodipodi:insensitive="true" />
  <g
     inkscape:groupmode="layer"
     id="layer3"
     inkscape:label="Pin">
    <path
       sodipodi:type="arc"
       style="opacity:0.36283186;fill:#f15929;fill-opacity:1;stroke:none;filter:url(#filter4376)"
       id="path4354"
       sodipodi:cx="72.077126"
       sodipodi:cy="42.475021"
       sodipodi:rx="40.946537"
       sodipodi:ry="40.946537"
       d="m 113.02366,42.475021 a 40.946537,40.946537 0 1 1 -0.0314,-1.602807"
       sodipodi:start="0"
       sodipodi:end="6.2440314"
       sodipodi:open="true"
       transform="matrix(1.476935,0,0,1.6061057,-34.376101,-19.744351)" />
    <path
       style="fill:url(#linearGradient5119);fill-opacity:1;stroke:#000000;stroke-width:0.40000001;stroke-miterlimit:4;stroke-opacity:1;stroke-dasharray:none"
       d="m 99.34375,13.78125 c -19.677957,0 -35.75,14.724101 -35.75,32.71875 0,0.51502 0.02749,0.997658 0.03125,1.5 0.293982,-17.766821 16.223168,-32.21875 35.71875,-32.21875 19.39253,0 34.44296,14.286852 34.875,32.5625 0.002,-0.398171 0,-0.766227 0,-1.1875 0,-18.661028 -15.19705,-33.375 -34.875,-33.375 z"
       id="path4483"
       inkscape:connector-curvature="0" />
    <path
       sodipodi:type="arc"
       style="opacity:0.16749998;fill:#000000;fill-opacity:1;stroke:none;filter:url(#filter4350)"
       id="path3767"
       sodipodi:cx="13.258252"
       sodipodi:cy="32.256977"
       sodipodi:rx="5.9346461"
       sodipodi:ry="3.1567268"
       d="M 19.192898,32.256977 A 5.9346461,3.1567268 0 1 1 19.18835,32.13341"
       transform="matrix(4.7470869,0,0,2.6602114,33.33445,46.31067)"
       sodipodi:start="0"
       sodipodi:end="6.2440314"
       sodipodi:open="true" />
    <path
       inkscape:connector-curvature="0"
       style="fill:#193659;fill-opacity:1;stroke:#000000;stroke-width:0.44321805;stroke-miterlimit:4;stroke-opacity:1;stroke-dasharray:none"
       d="m 100.9859,15.292306 c -20.538659,0 -37.226273,15.182155 -37.131,32.978988 0.03522,6.581496 0.172664,11.79257 6.236008,21.063522 9.525809,14.565612 26.377141,40.477264 26.377141,40.477264 0,0 16.120081,-23.206578 28.400001,-39.272365 8.57023,-11.212329 9.0048,-14.496441 9.61786,-21.621366 1.58667,-18.440365 -12.96133,-33.626043 -33.50001,-33.626043 0,0 0,0 0,0 m -0.82985,12.476837 c 12.61548,0 22.32487,9.249277 22.01367,20.657363 0,0 -0.0293,0.827846 -0.0293,0.827846 -0.79737,11.375059 -11.38924,20.353297 -23.67878,20.353297 -12.289545,0 -22.154007,-8.978238 -22.029766,-20.353297 0.128011,-11.720276 10.751418,-21.485209 23.724636,-21.485209 0,0 -3.5e-4,0 -3.5e-4,0"
       id="path4432"
       sodipodi:nodetypes="zsscsszsccssss" />
    <path
       style="color:#000000;fill:url(#linearGradient5117);fill-opacity:1;fill-rule:nonzero;stroke:#000000;stroke-width:0.40000001;stroke-miterlimit:4;stroke-opacity:1;stroke-dasharray:none;marker:none;visibility:visible;display:inline;overflow:visible;enable-background:accumulate"
       d="m 76.21875,48.625 c -0.01268,0.296421 -0.03125,0.575628 -0.03125,0.875 0,11.972443 10.218853,21.6875 22.84375,21.6875 12.6249,0 22.875,-9.715057 22.875,-21.6875 l -0.0312,-0.84375 C 121.24624,60.095486 111.25048,69.1875 99.0313,69.1875 86.800931,69.1875 76.831039,60.07901 76.2188,48.625 z"
       id="path4467"
       inkscape:connector-curvature="0" />
    <path
       style="color:#000000;fill:#193659;fill-opacity:1;fill-rule:nonzero;stroke:#000000;stroke-width:0.29493025;stroke-linecap:butt;stroke-linejoin:miter;stroke-miterlimit:4;stroke-opacity:1;stroke-dasharray:none;stroke-dashoffset:0;marker:none;visibility:visible;display:inline;overflow:visible;enable-background:accumulate"
       d="m 13.026115,17.99443 c 0,0 5.699201,63.335598 5.699201,63.335598 0,0 13.515511,0 13.515511,0 0,0 -1.547508,-25.083783 -1.547508,-25.083783 0,0 10.980816,0 10.980816,0 13.226892,0 19.836382,-9.963993 19.833199,-17.978664 -0.0037,-9.422442 -6.050411,-20.273151 -22.431926,-20.273151 0,0 -26.049293,0 -26.049293,0 0,0 0,0 0,0 M 29.39283,30.917399 c 0,0 5.778505,0.229253 9.446807,0.229253 3.668303,0 7.919074,2.054343 8.066335,7.232411 0.14439,5.077087 -4.149855,6.602694 -8.997797,6.602694 -4.847943,0 -7.66795,-0.217391 -7.66795,-0.217391 0,0 -0.847395,-13.846967 -0.847395,-13.846967 0,0 0,0 0,0"
       id="path4576"
       inkscape:connector-curvature="0" />
  </g>
</svg>
