<?xml version="1.0" encoding="UTF-8" standalone="no"?>
<!-- Created with Inkscape (http://www.inkscape.org/) -->

<svg
   xmlns:dc="http://purl.org/dc/elements/1.1/"
   xmlns:cc="http://creativecommons.org/ns#"
   xmlns:rdf="http://www.w3.org/1999/02/22-rdf-syntax-ns#"
   xmlns:svg="http://www.w3.org/2000/svg"
   xmlns="http://www.w3.org/2000/svg"
   xmlns:xlink="http://www.w3.org/1999/xlink"
   xmlns:sodipodi="http://sodipodi.sourceforge.net/DTD/sodipodi-0.dtd"
   xmlns:inkscape="http://www.inkscape.org/namespaces/inkscape"
   width="200"
   height="200"
   id="svg2"
   version="1.1"
   inkscape:version="0.48.4 r9939"
   inkscape:export-filename="c:\Users\wfalk\Documents\stripe.png"
   inkscape:export-xdpi="90"
   inkscape:export-ydpi="90"
   sodipodi:docname="android.svg">
  <defs
     id="defs4">
    <linearGradient
       id="linearGradient3902"
       inkscape:collect="always">
      <stop
         id="stop3904"
         offset="0"
         style="stop-color:#d9d9d9;stop-opacity:1" />
      <stop
         id="stop3906"
         offset="1"
         style="stop-color:#ffffff;stop-opacity:1" />
    </linearGradient>
    <linearGradient
       id="linearGradient3889">
      <stop
         style="stop-color:#828282;stop-opacity:1"
         offset="0"
         id="stop3891" />
      <stop
         id="stop3897"
         offset="0.5"
         style="stop-color:#b8b8b8;stop-opacity:1" />
      <stop
         style="stop-color:#b5b5b5;stop-opacity:1"
         offset="1"
         id="stop3893" />
    </linearGradient>
    <linearGradient
       id="linearGradient3871">
      <stop
         style="stop-color:#bcbcbc;stop-opacity:1"
         offset="0"
         id="stop3873" />
      <stop
         id="stop3883"
         offset="0.42239523"
         style="stop-color:#bdbdbd;stop-opacity:1" />
      <stop
         id="stop3881"
         offset="0.8937732"
         style="stop-color:#989898;stop-opacity:1" />
      <stop
         id="stop3879"
         offset="0.91810274"
         style="stop-color:#6b6b6b;stop-opacity:1" />
      <stop
         style="stop-color:#737373;stop-opacity:1"
         offset="1"
         id="stop3875" />
    </linearGradient>
    <linearGradient
       id="linearGradient3855">
      <stop
         style="stop-color:#b4b4b4;stop-opacity:1"
         offset="0"
         id="stop3857" />
      <stop
         id="stop3867"
         offset="0.60067058"
         style="stop-color:#adadad;stop-opacity:1" />
      <stop
         id="stop3865"
         offset="0.91126007"
         style="stop-color:#5c5c5c;stop-opacity:1" />
      <stop
         id="stop3863"
         offset="0.92888331"
         style="stop-color:#1f1f1f;stop-opacity:1" />
      <stop
         style="stop-color:#161616;stop-opacity:1"
         offset="1"
         id="stop3859" />
    </linearGradient>
    <linearGradient
       inkscape:collect="always"
       id="linearGradient3845">
      <stop
         style="stop-color:#612d07;stop-opacity:1"
         offset="0"
         id="stop3847" />
      <stop
         style="stop-color:#6c3409;stop-opacity:1"
         offset="1"
         id="stop3849" />
    </linearGradient>
    <linearGradient
       inkscape:collect="always"
       id="linearGradient3782">
      <stop
         style="stop-color:#919191;stop-opacity:1"
         offset="0"
         id="stop3784" />
      <stop
         style="stop-color:#bebebe;stop-opacity:1"
         offset="1"
         id="stop3786" />
    </linearGradient>
    <linearGradient
       inkscape:collect="always"
       xlink:href="#linearGradient3782"
       id="linearGradient3788"
       x1="-36.103989"
       y1="968.04541"
       x2="22.074108"
       y2="875.11139"
       gradientUnits="userSpaceOnUse"
       gradientTransform="translate(106.82363,0)" />
    <linearGradient
       inkscape:collect="always"
       xlink:href="#linearGradient3782-7"
       id="linearGradient3788-1"
       x1="-36.103989"
       y1="968.04541"
       x2="22.074108"
       y2="875.11139"
       gradientUnits="userSpaceOnUse"
       gradientTransform="translate(106.82363,0)" />
    <linearGradient
       inkscape:collect="always"
       id="linearGradient3782-7">
      <stop
         style="stop-color:#919191;stop-opacity:1"
         offset="0"
         id="stop3784-4" />
      <stop
         style="stop-color:#bebebe;stop-opacity:1"
         offset="1"
         id="stop3786-0" />
    </linearGradient>
    <linearGradient
       y2="875.11139"
       x2="22.074108"
       y1="968.04541"
       x1="-36.103989"
       gradientTransform="matrix(1.0611752,0,0,1.0611752,107.23925,-910.76694)"
       gradientUnits="userSpaceOnUse"
       id="linearGradient3805"
       xlink:href="#linearGradient3902"
       inkscape:collect="always" />
    <linearGradient
       inkscape:collect="always"
       xlink:href="#linearGradient3845"
       id="linearGradient3851"
       x1="46.270554"
       y1="166.65187"
       x2="157.625"
       y2="166.65187"
       gradientUnits="userSpaceOnUse"
       gradientTransform="matrix(1.0305876,0,0,1.0305876,-3.1222183,-6.0760611)" />
    <linearGradient
       inkscape:collect="always"
       xlink:href="#linearGradient3855"
       id="linearGradient3861"
       x1="67.125"
       y1="90.572915"
       x2="133.91667"
       y2="90.572915"
       gradientUnits="userSpaceOnUse"
       gradientTransform="matrix(1.0611752,0,0,1.0611752,-6.1193457,-18.531146)" />
    <linearGradient
       inkscape:collect="always"
       xlink:href="#linearGradient3871"
       id="linearGradient3877"
       x1="73.895833"
       y1="92.395832"
       x2="133.44061"
       y2="92.395828"
       gradientUnits="userSpaceOnUse"
       gradientTransform="matrix(1.0611752,0,0,0.97970254,-6.1193457,-13.849248)" />
    <linearGradient
       inkscape:collect="always"
       xlink:href="#linearGradient3889"
       id="linearGradient3895"
       x1="48.171658"
       y1="65.060455"
       x2="151.88065"
       y2="65.060455"
       gradientUnits="userSpaceOnUse"
       gradientTransform="matrix(1.0611752,0,0,1.0611752,-5.8066931,-6.2613083)" />
    <linearGradient
       inkscape:collect="always"
       xlink:href="#linearGradient3845"
       id="linearGradient3828"
       gradientUnits="userSpaceOnUse"
       gradientTransform="translate(-213.35332,-7.1888884)"
       x1="46.270554"
       y1="166.65187"
       x2="157.625"
       y2="166.65187" />
    <linearGradient
       inkscape:collect="always"
       xlink:href="#linearGradient3889"
       id="linearGradient3830"
       gradientUnits="userSpaceOnUse"
       gradientTransform="translate(-211.05869,-7.1888884)"
       x1="48.171658"
       y1="65.060455"
       x2="151.88065"
       y2="65.060455" />
    <linearGradient
       inkscape:collect="always"
       xlink:href="#linearGradient3871"
       id="linearGradient3832"
       gradientUnits="userSpaceOnUse"
       gradientTransform="translate(-211.35332,-20.105555)"
       x1="73.895833"
       y1="92.395832"
       x2="133.44061"
       y2="92.395828" />
    <linearGradient
       inkscape:collect="always"
       xlink:href="#linearGradient3855"
       id="linearGradient3834"
       gradientUnits="userSpaceOnUse"
       gradientTransform="translate(-211.35332,-18.751388)"
       x1="67.125"
       y1="90.572915"
       x2="133.91667"
       y2="90.572915" />
    <linearGradient
       inkscape:collect="always"
       xlink:href="#linearGradient3902"
       id="linearGradient3836"
       gradientUnits="userSpaceOnUse"
       gradientTransform="translate(-104.52969,-859.55107)"
       x1="-36.103989"
       y1="968.04541"
       x2="22.074108"
       y2="875.11139" />
    <filter
       inkscape:collect="always"
       id="filter3867">
      <feGaussianBlur
         inkscape:collect="always"
         stdDeviation="4.0223205"
         id="feGaussianBlur3869" />
    </filter>
    <linearGradient
       inkscape:collect="always"
       xlink:href="#linearGradient3845"
       id="linearGradient3840"
       gradientUnits="userSpaceOnUse"
       gradientTransform="matrix(1.0611752,0,0,1.0611752,-8.2416961,-6.2613083)"
       x1="46.270554"
       y1="166.65187"
       x2="157.625"
       y2="166.65187" />
  </defs>
  <sodipodi:namedview
     id="base"
     pagecolor="#ffffff"
     bordercolor="#666666"
     borderopacity="1.0"
     inkscape:pageopacity="0.0"
     inkscape:pageshadow="2"
     inkscape:zoom="1.0006856"
     inkscape:cx="139.77597"
     inkscape:cy="96.675439"
     inkscape:document-units="px"
     inkscape:current-layer="layer2"
     showgrid="false"
     inkscape:window-width="809"
     inkscape:window-height="423"
     inkscape:window-x="1973"
     inkscape:window-y="514"
     inkscape:window-maximized="0" />
  <metadata
     id="metadata7">
    <rdf:RDF>
      <cc:Work
         rdf:about="">
        <dc:format>image/svg+xml</dc:format>
        <dc:type
           rdf:resource="http://purl.org/dc/dcmitype/StillImage" />
        <dc:title />
      </cc:Work>
    </rdf:RDF>
  </metadata>
  <g
     inkscape:label="Layer 1"
     inkscape:groupmode="layer"
     id="layer1"
     transform="translate(0,-852.36218)"
     sodipodi:insensitive="true"
     style="display:none">
    <image
       y="852.36523"
       x="-0.10936359"
       id="image3774"
       xlink:href="file:///C:/Users/wfalk/Documents/appicon.png"
       height="200.21841"
       width="200.21841" />
  </g>
  <g
     inkscape:groupmode="layer"
     id="layer2"
     inkscape:label="Layer"
     style="display:inline">
    <path
       style="fill:#000000;fill-opacity:1;stroke:none;filter:url(#filter3867)"
       d="m 100.40503,15.709906 c -27.637987,0 -50.205557,21.828827 -51.749997,49.3125 -0.15432,1.380741 -0.21875,2.73112 -0.21875,4.0625 0,15.71429 3.79216,22.38155 8.125,29.4375 l 31.3125,51.218754 c -1.10595,0.086 -2.19367,0.17225 -3.28125,0.28125 -0.89966,0.0899 -1.776,0.1763 -2.65625,0.28125 -0.31371,0.0374 -0.62577,0.0857 -0.9375,0.125 -1.33615,0.16876 -2.65161,0.32885 -3.9375,0.53125 -0.40182,0.063 -0.78994,0.1525 -1.1875,0.21875 -1.20368,0.20155 -2.40922,0.395 -3.5625,0.625 -0.11483,0.0228 -0.22937,0.0394 -0.34375,0.0625 -1.78324,0.36154 -3.50735,0.76173 -5.15625,1.1875 -0.34564,0.089 -0.69119,0.18939 -1.03125,0.28125 -0.58273,0.15801 -1.1551,0.33424 -1.71875,0.5 -0.09107,0.0267 -0.19064,0.0356 -0.28125,0.0625 -0.36325,0.10823 -0.73879,0.23236 -1.09375,0.34375 -1.12144,0.35156 -2.20771,0.70821 -3.25,1.09375 -0.39995,0.14781 -0.80109,0.28538 -1.1875,0.4375 -0.01222,0.005 -0.01905,0.0264 -0.03125,0.0312 -0.35575,0.14034 -0.71854,0.29359 -1.0625,0.4375 -1.07923,0.45292 -2.09558,0.91392 -3.0625,1.40625 -0.10937,0.0554 -0.20477,0.13165 -0.3125,0.1875 -0.32907,0.17135 -0.65396,0.32407 -0.96875,0.5 -0.1397,0.0777 -0.26969,0.17155 -0.40625,0.25 -0.17448,0.10071 -0.3615,0.1791 -0.53125,0.28125 -3.89938,2.33784 -6.41585,4.98756 -7.15625,7.8125 -0.21788,0.71887 -0.36828,1.45309 -0.375,2.21875 -0.10416,11.875 28.97917,20.09375 55.125,20.09375 26.145827,0 56.249997,-7.08333 56.249997,-20 0,-0.55708 -0.0902,-1.09236 -0.1875,-1.625 -0.12637,-0.87461 -0.3125,-1.53125 -0.3125,-1.53125 l -0.0937,0 c -0.0372,-0.0948 -0.0526,-0.18693 -0.0937,-0.28125 -2.10575,-5.13879 -8.94706,-9.00073 -18.4375,-11.5625 -5.6195,-1.69471 -12.23022,-3.00492 -19.5,-3.8125 -0.16667,-0.0186 -0.33311,-0.0445 -0.5,-0.0625 -0.45802,-0.0492 -0.94323,-0.0798 -1.40625,-0.125 -1.13683,-0.1115 -2.26233,-0.22703 -3.40625,-0.3125 9.39249,-15.45656 21.27642,-34.96055 30,-49.125 2.16656,-3.519619 7.91095,-11.564913 9.75,-23.906254 0.0876,-0.587686 0.17914,-1.175286 0.25,-1.78125 0.30378,-2.242709 0.5,-4.519541 0.5,-6.84375 0,-28.882526 -23.23655,-52.3125 -51.875,-52.3125 z m 0.1875,20.5625 c 16.29732,0 29.84904,11.52612 32.75,26.75 0.057,0.835703 0.12333,2.071778 0.15625,3.46875 -0.04,-0.783404 -0.0937,-1.34375 -0.0937,-1.34375 0.3125,7.916667 -2.80208,16.864584 -8.21875,22.59375 -5.41666,5.729166 -13.43751,10.75 -25,10.75 -10.416667,0 -17.916667,-5.21875 -20.937497,-7.71875 -2.49087,-2.061406 -4.47101,-4.072041 -5.21875,-4.84375 -3.7423,-4.75154 -6.03516,-9.996094 -6.25,-14.9375 -0.20401,-4.692255 -0.1601,-6.197736 -0.125,-6.875 2.44144,-15.760705 16.25305,-27.84375 32.937497,-27.84375 z m 33.09375,29 c 0.15025,1.264533 0.25,2.539638 0.25,3.84375 0,0.241391 -0.026,0.478598 -0.0312,0.71875 -0.0389,-1.977516 -0.11902,-3.383618 -0.21875,-4.5625 z m -5.9375,22.84375 c -0.34532,0.477992 -0.69233,0.947708 -1.0625,1.40625 0.36623,-0.453582 0.71211,-0.928787 1.0625,-1.40625 z"
       id="path3808"
       inkscape:connector-curvature="0"
       transform="matrix(1.0611752,0,0,1.0611752,-6.1193457,-6.2613083)" />
    <path
       style="fill:url(#linearGradient3840);fill-opacity:1;stroke:none"
       d="m 40.859763,169.82745 c -0.110539,12.60145 30.729866,21.33404 58.475176,21.33404 27.745311,0 59.691101,-7.51665 59.691101,-21.2235 0,-13.70685 -28.29801,-20.44973 -59.248947,-19.89703 -30.950946,0.55269 -58.806791,7.18503 -58.91733,19.78649 z"
       id="path3843"
       inkscape:connector-curvature="0"
       sodipodi:nodetypes="zzzzz" />
    <path
       sodipodi:type="arc"
       style="color:#000000;fill:#c46218;fill-opacity:1;fill-rule:nonzero;stroke:none;stroke-width:2.0999999;marker:none;visibility:visible;display:inline;overflow:visible;enable-background:accumulate"
       id="path3031"
       sodipodi:cx="99.717628"
       sodipodi:cy="165.13695"
       sodipodi:rx="55.238651"
       sodipodi:ry="19.189503"
       d="m 154.95628,165.13695 a 55.238651,19.189503 0 1 1 -110.477303,0 55.238651,19.189503 0 1 1 110.477303,0 z"
       transform="matrix(1.0676854,0,0,1.0611752,-6.498821,-5.9016894)" />
    <path
       style="color:#000000;fill:#5d2b06;fill-opacity:1;fill-rule:nonzero;stroke:none;stroke-width:2.0999999;marker:none;visibility:visible;display:inline;overflow:visible;enable-background:accumulate"
       d="M 47.606521,159.96669 C 61.869069,150.46588 94.99666,146.39765 123.43171,150.655 l -23.733181,19.58159 z"
       id="path3033"
       inkscape:connector-curvature="0"
       sodipodi:nodetypes="cccc" />
    <path
       style="fill:url(#linearGradient3895);fill-opacity:1;stroke:none"
       d="m 100.32978,5.1477786 c -34.499032,0 -53.276885,25.2851064 -54.915807,54.4500974 2.456443,-21.978128 35.099291,-45.552453 53.244785,-45.618277 19.240692,0.247086 56.553692,19.012631 56.553692,49.697169 0,2.933713 -0.24542,5.676823 -0.63009,8.257269 0.49051,-2.979168 0.7959,-6.033161 0.7959,-9.152635 0,-30.64942 -20.54944,-57.6336234 -55.04848,-57.6336234 z"
       id="path3887"
       inkscape:connector-curvature="0"
       sodipodi:nodetypes="zccscsz" />
    <path
       style="fill:url(#linearGradient3861);fill-opacity:1;stroke:none"
       d="m 65.620517,57.851359 c 0,0 -0.442156,2.874015 -0.442156,5.858571 0,2.984554 0.167602,13.692596 8.290431,22.771049 7.516658,8.40097 16.525547,12.491097 27.026748,12.491097 10.88843,0 18.86134,-4.627204 24.09763,-9.45123 5.86889,-5.406833 11.3302,-14.53593 11.3302,-22.494744 0,-7.958814 -0.71827,-10.722383 -0.71827,-10.722383 0,0 0.66174,6.802568 -0.0556,10.912638 -0.71874,4.117945 -3.70502,12.10121 -9.28519,16.677673 -7.40612,6.073964 -15.03332,9.265374 -25.31344,9.265374 -10.280143,0 -17.247175,-3.532 -21.886752,-7.103454 C 71.001091,80.15711 66.062663,72.363787 65.731045,65.260333 65.438154,58.986395 65.620506,57.745085 65.620506,57.745085 z"
       id="path3853"
       inkscape:connector-curvature="0"
       sodipodi:nodetypes="cssssscsszsscc" />
    <path
       style="fill:url(#linearGradient3877);fill-opacity:1;stroke:none"
       d="m 135.37095,59.730157 c 0.33162,7.755978 -2.98483,16.532819 -8.73286,22.145697 -5.74802,5.612878 -14.25955,10.511391 -26.52938,10.511391 -11.053908,0 -19.012721,-5.102614 -22.218355,-7.55187 -3.205633,-2.449259 -6.190738,-5.357878 -6.190738,-5.357878 0,0 9.726475,13.726165 27.856394,13.726165 18.129919,0 26.419199,-8.26615 29.514299,-12.144142 3.09509,-3.877988 5.41605,-9.184795 6.07929,-13.573046 0.66324,-4.388252 0.22135,-7.756317 0.22135,-7.756317 z"
       id="path3869"
       inkscape:connector-curvature="0"
       sodipodi:nodetypes="csssczzsc" />
    <path
       style="fill:url(#linearGradient3805);fill-opacity:1;stroke:#000000;stroke-width:0.4244701;stroke-miterlimit:4;stroke-opacity:1;stroke-dasharray:none"
       d="M 98.207439,9.689481 C 66.483457,10.83122 45.181841,41.303659 45.181841,63.9089 c 0,16.675614 4.024151,23.750745 8.622049,31.238344 l 45.955472,75.120836 c 0,0 29.539848,-48.7121 44.476558,-72.964794 2.75195,-4.470614 10.97653,-15.804834 10.97653,-33.625988 0,-30.684538 -22.91912,-53.9872864 -55.479571,-53.9872864 -0.508754,0 -1.021885,-0.018146 -1.52544,0 z m 2.321321,19.399609 c 19.53669,0 35.38355,15.612296 35.38355,34.852972 0,19.240676 -15.84686,34.852972 -35.38355,34.852972 -19.536693,0 -35.350399,-15.612296 -35.350399,-34.852972 0,-19.240676 15.813706,-34.852972 35.350399,-34.852972 z"
       id="path3777"
       inkscape:connector-curvature="0"
       sodipodi:nodetypes="cscccssccsssss" />
    <path
       style="fill:#000000;fill-opacity:0.10106381;stroke:none"
       d="m 99.732879,170.29171 0.947711,-4.86519 57.81487,1.15108 c 0,0 0.66322,1.85705 0.39794,3.71411 -0.2653,1.85706 -1.85706,4.11206 -1.85706,4.11206 z"
       id="path3835"
       inkscape:connector-curvature="0"
       sodipodi:nodetypes="cccscc" />
    <path
       style="fill:#874514;fill-opacity:0.24117647;stroke:none"
       d="M 109.95838,152.99418 99.799201,169.99326 89.360998,153.02035 c 0,0 6.587719,-0.45616 10.028977,-0.46261 3.441265,-0.006 10.568405,0.43644 10.568405,0.43644 z"
       id="path3827"
       inkscape:connector-curvature="0"
       sodipodi:nodetypes="ccczc" />
    <path
       style="fill:#000000;fill-opacity:0.28723402;stroke:none"
       d="m 99.619388,170.31972 5.816572,-4.86962 -2.98382,0.0332 z"
       id="path3829"
       inkscape:connector-curvature="0"
       sodipodi:nodetypes="cccc" />
  </g>
</svg>
