<?xml version="1.0" encoding="UTF-8" standalone="no"?>
<!-- Created with Inkscape (http://www.inkscape.org/) -->

<svg
   xmlns:dc="http://purl.org/dc/elements/1.1/"
   xmlns:cc="http://creativecommons.org/ns#"
   xmlns:rdf="http://www.w3.org/1999/02/22-rdf-syntax-ns#"
   xmlns:svg="http://www.w3.org/2000/svg"
   xmlns="http://www.w3.org/2000/svg"
   xmlns:xlink="http://www.w3.org/1999/xlink"
   xmlns:sodipodi="http://sodipodi.sourceforge.net/DTD/sodipodi-0.dtd"
   xmlns:inkscape="http://www.inkscape.org/namespaces/inkscape"
   width="450"
   height="200"
   id="svg2"
   version="1.1"
   inkscape:version="0.48.4 r9939"
   sodipodi:docname="New document 1">
  <defs
     id="defs4">
    <linearGradient
       id="linearGradient3792">
      <stop
         style="stop-color:#006fc8;stop-opacity:1;"
         offset="0"
         id="stop3794" />
      <stop
         style="stop-color:#0092f5;stop-opacity:1;"
         offset="1"
         id="stop3796" />
    </linearGradient>
    <linearGradient
       id="linearGradient3784">
      <stop
         style="stop-color:#006fc8;stop-opacity:1;"
         offset="0"
         id="stop3786" />
      <stop
         style="stop-color:#000000;stop-opacity:1;"
         offset="1"
         id="stop3788" />
    </linearGradient>
    <inkscape:path-effect
       effect="spiro"
       id="path-effect3014"
       is_visible="true" />
    <linearGradient
       inkscape:collect="always"
       xlink:href="#linearGradient3792"
       id="linearGradient3802"
       gradientUnits="userSpaceOnUse"
       gradientTransform="matrix(0.96008662,0,0,0.92480945,9.3244205,-76.077713)"
       x1="206.37766"
       y1="1170.4114"
       x2="206.37766"
       y2="1031.1396" />
    <filter
       inkscape:collect="always"
       id="filter3950">
      <feGaussianBlur
         inkscape:collect="always"
         stdDeviation="0.89020639"
         id="feGaussianBlur3952" />
    </filter>
    <filter
       inkscape:collect="always"
       id="filter4048">
      <feGaussianBlur
         inkscape:collect="always"
         stdDeviation="4.1887597"
         id="feGaussianBlur4050" />
    </filter>
  </defs>
  <sodipodi:namedview
     id="base"
     pagecolor="#ffffff"
     bordercolor="#666666"
     borderopacity="1.0"
     inkscape:pageopacity="0.0"
     inkscape:pageshadow="2"
     inkscape:zoom="0.79066265"
     inkscape:cx="220.55499"
     inkscape:cy="62.679675"
     inkscape:document-units="px"
     inkscape:current-layer="layer1"
     showgrid="false"
     showguides="true"
     inkscape:guide-bbox="true"
     inkscape:window-width="887"
     inkscape:window-height="562"
     inkscape:window-x="945"
     inkscape:window-y="384"
     inkscape:window-maximized="0" />
  <metadata
     id="metadata7">
    <rdf:RDF>
      <cc:Work
         rdf:about="">
        <dc:format>image/svg+xml</dc:format>
        <dc:type
           rdf:resource="http://purl.org/dc/dcmitype/StillImage" />
        <dc:title></dc:title>
      </cc:Work>
    </rdf:RDF>
  </metadata>
  <g
     inkscape:label="Layer 1"
     inkscape:groupmode="layer"
     id="layer1"
     transform="translate(0,-852.36218)">
    <rect
       id="rect3008"
       width="406.08133"
       height="147.48227"
       x="29.310991"
       y="881.66077"
       rx="14"
       ry="14"
       style="fill:#000000;fill-opacity:0.76000000999999984;filter:url(#filter4048)"
       transform="matrix(0.96008662,0,0,0.92480945,6.538701,66.469574)" />
    <rect
       style="fill:url(#linearGradient3802);fill-opacity:1.0"
       ry="12.947332"
       rx="13.441213"
       y="873.80182"
       x="27.751265"
       height="136.39299"
       width="389.87326"
       id="rect3800" />
    <g
       id="g4021"
       transform="matrix(1,0,0,0.89347545,0,95.893116)">
      <path
         inkscape:connector-curvature="0"
         id="path3877"
         style="font-size:64.08997345px;font-style:normal;font-weight:normal;line-height:125%;letter-spacing:0px;word-spacing:0px;fill:#000000;fill-opacity:0.37999998;stroke:none;filter:url(#filter3950);font-family:Sans"
         d="m 148.6513,953.86503 -16.10526,-50.63317 5.95441,0 10.803,36.7833 c 0.86951,2.94727 1.59727,5.71035 2.18328,8.28919 0.64268,-2.76305 1.38934,-5.52612 2.23999,-8.28919 l 11.22831,-36.7833 5.61416,0 -16.27538,50.63317 z" />
      <path
         d="m 150.6513,955.86503 -16.10526,-50.63317 5.95441,0 10.803,36.7833 c 0.86951,2.94727 1.59727,5.71035 2.18328,8.28919 0.64268,-2.76305 1.38934,-5.52612 2.23999,-8.28919 l 11.22831,-36.7833 5.61416,0 -16.27538,50.63317 z"
         style="font-size:64.08997345px;font-style:normal;font-weight:normal;line-height:125%;letter-spacing:0px;word-spacing:0px;fill:#ffffff;fill-opacity:1;stroke:none;font-family:Sans"
         id="path3833"
         inkscape:connector-curvature="0" />
    </g>
    <g
       id="g4063"
       transform="translate(6,0)">
      <g
         id="g4052">
        <g
           id="g4030"
           transform="matrix(1,0,0,0.89347545,0,95.893116)">
          <path
             style="font-size:64.08997345px;font-style:normal;font-weight:normal;line-height:125%;letter-spacing:0px;word-spacing:0px;fill:#000000;fill-opacity:0.37999998;stroke:none;filter:url(#filter3950);font-family:Sans"
             sodipodi:nodetypes="cccccccccccsccsscccccccc"
             inkscape:connector-curvature="0"
             id="path3873"
             d="m 72.236415,953.86503 0,-50.63317 14.318927,0 c 3.232376,5e-5 5.699198,0.24181 7.400478,0.7253 2.38174,0.66779 4.41379,1.87663 6.09617,3.62653 2.19271,2.25654 3.83253,5.14048 4.91948,8.65185 1.08688,3.51142 0.73602,7.52361 0.73605,12.03659 -3e-5,3.84529 0.52568,7.25306 -0.21149,10.22335 -0.73725,2.97029 -1.68239,5.42828 -2.83543,7.37392 -1.15311,1.94567 -2.41488,3.47686 -3.7853,4.59359 -1.3705,1.11675 -3.02449,1.96293 -4.96201,2.53858 -1.937572,0.57563 -4.163382,0.86346 -6.677439,0.86346 z m 5.500738,-5.97513 8.8749,0 c 2.740899,0 4.891098,-0.31084 6.450607,-0.93254 1.55946,-0.62169 2.80232,-1.49665 3.72859,-2.62491 1.30427,-1.58875 2.3203,-3.72437 3.04809,-6.40685 0.72773,-2.68246 0.19729,-5.93483 0.19732,-9.75708 -3e-5,-5.29585 0.18071,-9.36561 -1.24643,-12.2093 -1.4272,-2.84361 -3.16153,-4.74897 -5.20301,-5.71609 -1.47445,-0.69072 -3.846763,-1.0361 -7.116939,-1.03615 l -8.733128,0 z" />
          <path
             d="m 74.236415,955.86503 0,-50.63317 14.318927,0 c 3.232376,5e-5 5.699198,0.24181 7.400478,0.7253 2.38174,0.66779 4.41379,1.87663 6.09617,3.62653 2.19271,2.25654 3.83253,5.14048 4.91948,8.65185 1.08688,3.51142 0.73602,7.52361 0.73605,12.03659 -3e-5,3.84529 0.52568,7.25306 -0.21149,10.22335 -0.73725,2.97029 -1.68239,5.42828 -2.83543,7.37392 -1.15311,1.94567 -2.41488,3.47686 -3.7853,4.59359 -1.3705,1.11675 -3.02449,1.96293 -4.96201,2.53858 -1.937572,0.57563 -4.163382,0.86346 -6.677439,0.86346 z m 5.500738,-5.97513 8.8749,0 c 2.740899,0 4.891098,-0.31084 6.450607,-0.93254 1.55946,-0.62169 2.80232,-1.49665 3.72859,-2.62491 1.30427,-1.58875 2.3203,-3.72437 3.04809,-6.40685 0.72773,-2.68246 0.19729,-5.93483 0.19732,-9.75708 -3e-5,-5.29585 0.18071,-9.36561 -1.24643,-12.2093 -1.4272,-2.84361 -3.16153,-4.74897 -5.20301,-5.71609 -1.47445,-0.69072 -3.846763,-1.0361 -7.116939,-1.03615 l -8.733128,0 z"
             id="path3829"
             inkscape:connector-curvature="0"
             sodipodi:nodetypes="cccccccccccsccsscccccccc"
             style="font-size:64.08997345px;font-style:normal;font-weight:normal;line-height:125%;letter-spacing:0px;word-spacing:0px;fill:#ffffff;fill-opacity:1;stroke:none;font-family:Sans" />
        </g>
        <path
           style="font-size:64.08997345px;font-style:normal;font-weight:normal;line-height:125%;letter-spacing:0px;word-spacing:0px;fill:#ffffff;fill-opacity:0.21600001;stroke:none;filter:url(#filter3950);font-family:Sans"
           sodipodi:nodetypes="cccccccccccsccsscccccccc"
           inkscape:connector-curvature="0"
           id="path3956"
           d="m 75.936495,956.09115 0,-50.63317 14.318927,0 c 3.232376,5e-5 5.699198,0.24181 7.400478,0.7253 2.38174,0.66779 4.41379,1.87663 6.09617,3.62653 2.19271,2.25654 3.83253,5.14048 4.91948,8.65185 1.08688,3.51142 0.73602,7.52361 0.73605,12.03659 -3e-5,3.84529 0.52568,7.25306 -0.21149,10.22335 -0.73725,2.97029 -1.68239,5.42828 -2.83543,7.37392 -1.15311,1.94567 -2.41488,3.47686 -3.7853,4.59359 -1.3705,1.11675 -3.02449,1.96293 -4.96201,2.53858 -1.937572,0.57563 -4.163382,0.86346 -6.677439,0.86346 z m 5.500738,-5.97513 8.8749,0 c 2.740899,0 4.891098,-0.31084 6.450607,-0.93254 1.55946,-0.62169 2.80232,-1.49665 3.72859,-2.62491 1.30427,-1.58875 2.3203,-3.72437 3.04809,-6.40685 0.72773,-2.68246 0.19729,-5.93483 0.19732,-9.75708 -3e-5,-5.29585 0.18071,-9.36561 -1.24643,-12.2093 -1.4272,-2.84361 -3.16153,-4.74897 -5.20301,-5.71609 -1.47445,-0.69072 -3.846763,-1.0361 -7.116939,-1.03615 l -8.733128,0 z"
           transform="matrix(1,0,0,0.89347545,0,95.893116)" />
      </g>
    </g>
    <g
       id="g4058"
       transform="matrix(1.2840537,0,0,1.2840537,-28.869477,-263.44563)">
      <path
         transform="matrix(1,0,0,0.89347545,0,95.893116)"
         inkscape:connector-curvature="0"
         id="path3875"
         style="font-size:64.08997345px;font-style:normal;font-weight:normal;line-height:125%;letter-spacing:0px;word-spacing:0px;fill:#000000;fill-opacity:0.37999998;stroke:none;filter:url(#filter3950);font-family:Sans"
         d="m 111.5355,928.96456 1.3043,-4.90444 c 3.00555,1.28948 5.18883,2.40621 6.54985,3.35022 -0.35917,-4.16758 -0.5482,-7.03425 -0.56709,-8.60004 l 4.11137,0 c -0.0567,2.27958 -0.2741,5.13474 -0.65215,8.5655 1.94698,-1.19729 4.17752,-2.30251 6.69163,-3.31568 l 1.30429,4.90444 c -2.40069,0.96711 -4.75409,1.61183 -7.06022,1.93415 1.15306,1.22039 2.77871,3.3963 4.87694,6.52774 l -3.40252,2.93576 c -1.09638,-1.81899 -2.39122,-4.29423 -3.88454,-7.42574 -1.39882,3.24663 -2.62751,5.72188 -3.68606,7.42574 l -3.34581,-2.93576 c 2.19273,-3.29262 3.76166,-5.46853 4.70681,-6.52774 -2.43847,-0.5756 -4.75407,-1.22031 -6.9468,-1.93415 z" />
      <path
         transform="matrix(1,0,0,0.89347545,0,95.893116)"
         d="m 115.23558,931.19068 1.3043,-4.90444 c 3.00555,1.28948 5.18883,2.40621 6.54985,3.35022 -0.35917,-4.16758 -0.5482,-7.03425 -0.56709,-8.60004 l 4.11137,0 c -0.0567,2.27958 -0.2741,5.13474 -0.65215,8.5655 1.94698,-1.19729 4.17752,-2.30251 6.69163,-3.31568 l 1.30429,4.90444 c -2.40069,0.96711 -4.75409,1.61183 -7.06022,1.93415 1.15306,1.22039 2.77871,3.3963 4.87694,6.52774 l -3.40252,2.93576 c -1.09638,-1.81899 -2.39122,-4.29423 -3.88454,-7.42574 -1.39882,3.24663 -2.62751,5.72188 -3.68606,7.42574 l -3.34581,-2.93576 c 2.19273,-3.29262 3.76166,-5.46853 4.70681,-6.52774 -2.43847,-0.5756 -4.75407,-1.22031 -6.9468,-1.93415 z"
         style="font-size:64.08997345px;font-style:normal;font-weight:normal;line-height:125%;letter-spacing:0px;word-spacing:0px;fill:#ffffff;fill-opacity:0.21600001;stroke:none;filter:url(#filter3950);font-family:Sans"
         id="path3958"
         inkscape:connector-curvature="0" />
      <path
         d="m 113.5355,927.6871 1.3043,-4.382 c 3.00555,1.15212 5.18883,2.14989 6.54985,2.99334 -0.35917,-3.72363 -0.5482,-6.28493 -0.56709,-7.68393 l 4.11137,0 c -0.0567,2.03675 -0.2741,4.58777 -0.65215,7.65307 1.94698,-1.06975 4.17752,-2.05724 6.69163,-2.96248 l 1.30429,4.382 c -2.40069,0.86408 -4.75409,1.44013 -7.06022,1.72811 1.15306,1.09039 2.77871,3.03451 4.87694,5.83238 l -3.40252,2.62303 c -1.09638,-1.62523 -2.39122,-3.83679 -3.88454,-6.63472 -1.39882,2.90078 -2.62751,5.11236 -3.68606,6.63472 l -3.34581,-2.62303 c 2.19273,-2.94188 3.76166,-4.886 4.70681,-5.83238 -2.43847,-0.51428 -4.75407,-1.09032 -6.9468,-1.72811 z"
         style="font-size:64.08997345px;font-style:normal;font-weight:normal;line-height:125%;letter-spacing:0px;word-spacing:0px;fill:#f2673a;fill-opacity:1;stroke:none;font-family:Sans"
         id="path3831"
         inkscape:connector-curvature="0" />
    </g>
    <path
       inkscape:connector-curvature="0"
       id="path3960"
       style="font-size:64.08997345px;font-style:normal;font-weight:normal;line-height:125%;letter-spacing:0px;word-spacing:0px;fill:#ffffff;fill-opacity:0.21600001;stroke:none;filter:url(#filter3950);font-family:Sans"
       d="m 152.35138,956.09115 -16.10526,-50.63317 5.95441,0 10.803,36.7833 c 0.86951,2.94727 1.59727,5.71035 2.18328,8.28919 0.64268,-2.76305 1.38934,-5.52612 2.23999,-8.28919 l 11.22831,-36.7833 5.61416,0 -16.27538,50.63317 z"
       transform="matrix(1,0,0,0.89347545,0,95.893116)" />
    <g
       id="g4016"
       transform="matrix(1,0,0,0.89347545,0,95.893116)">
      <path
         inkscape:connector-curvature="0"
         id="path3879"
         style="font-size:64.08997345px;font-style:normal;font-weight:normal;line-height:125%;letter-spacing:0px;word-spacing:0px;fill:#000000;fill-opacity:0.37999998;stroke:none;filter:url(#filter3950);font-family:Sans"
         d="m 178.49524,953.86503 0,-50.63317 5.50073,0 0,50.63317 z" />
      <path
         d="m 180.49524,955.86503 0,-50.63317 5.50073,0 0,50.63317 z"
         style="font-size:64.08997345px;font-style:normal;font-weight:normal;line-height:125%;letter-spacing:0px;word-spacing:0px;fill:#ffffff;fill-opacity:1;stroke:none;font-family:Sans"
         id="path3835"
         inkscape:connector-curvature="0" />
      <path
         d="m 182.19532,956.09115 0,-50.63317 5.50073,0 0,50.63317 z"
         style="font-size:64.08997345px;font-style:normal;font-weight:normal;line-height:125%;letter-spacing:0px;word-spacing:0px;fill:#ffffff;fill-opacity:0.21600001;stroke:none;filter:url(#filter3950);font-family:Sans"
         id="path3962"
         inkscape:connector-curvature="0" />
    </g>
    <g
       id="g4011"
       transform="matrix(1,0,0,0.89347545,0,95.893116)">
      <path
         style="font-size:64.08997345px;font-style:normal;font-weight:normal;line-height:125%;letter-spacing:0px;word-spacing:0px;fill:#000000;fill-opacity:0.37999998;stroke:none;filter:url(#filter3950);font-family:Sans"
         sodipodi:nodetypes="ccsscccccccsccccccccsccccccssscc"
         inkscape:connector-curvature="0"
         id="path3881"
         d="m 200.69768,943.27903 c 0.89788,1.62331 2.29196,2.93577 4.18227,3.93736 1.89027,1.00162 4.01684,1.50242 6.37971,1.50242 2.09821,0 3.95068,-0.37991 5.55745,-1.13976 1.60672,-0.75984 2.80233,-1.80174 3.58683,-3.12572 0.78443,-1.32395 1.17667,-2.76881 1.17669,-4.33456 -2e-5,-1.58875 -0.37808,-2.97603 -1.13416,-4.16186 -0.75615,-1.1858 -2.00374,-2.18165 -3.74277,-2.98756 -1.11529,-0.52957 -3.58212,-1.35273 -7.40048,-2.4695 -3.81839,-1.11671 -6.49315,-2.17013 -8.02427,-3.16025 -1.98482,-1.26637 -3.46396,-2.83787 -4.43745,-4.71449 -0.9735,-1.87654 -1.46025,-3.97762 -1.46025,-6.30323 0,-2.55579 0.59544,-4.9447 1.78632,-7.1667 1.19088,-2.22192 2.92994,-3.90854 5.21719,-5.05986 2.28724,-1.15124 4.82967,-1.72687 7.62732,-1.72692 3.08114,5e-5 5.79843,0.60447 8.15187,1.81326 2.35337,1.20889 3.20351,2.27851 4.31194,3.99469 -1.76994,0.61604 -1.78499,1.90773 -3.87455,3.22105 -2.30586,-3.4234 -5.16786,-3.1229 -8.36243,-3.12296 -3.32692,6e-5 -5.75122,0.74262 -7.27288,2.22773 -1.52169,1.48519 -2.28253,3.27543 -2.28252,5.37071 -1e-5,1.81905 0.53872,3.31571 1.61619,4.48998 1.05855,1.17433 3.8231,2.37741 8.29365,3.60926 4.4705,1.23188 7.53749,2.30833 9.20097,3.22933 2.41954,1.35853 4.20585,3.07969 5.35896,5.16347 1.15304,2.08384 1.72958,4.48424 1.72962,7.20124 -4e-5,2.694 -0.63329,5.23257 -1.89974,7.6157 -1.26653,2.38314 -3.08593,4.2367 -5.45821,5.56066 -2.37233,1.32397 -5.04237,1.98596 -8.01009,1.98596 -3.76169,0 -6.91374,-0.66774 -9.45617,-2.00322 -2.54244,-1.33548 -4.53669,-3.34446 -5.98276,-6.02694 2.56258,-2.21487 2.0559,-1.84094 4.62175,-3.41929 z" />
      <path
         d="m 202.69768,945.27903 c 0.89788,1.62331 2.29196,2.93577 4.18227,3.93736 1.89027,1.00162 4.01684,1.50242 6.37971,1.50242 2.09821,0 3.95068,-0.37991 5.55745,-1.13976 1.60672,-0.75984 2.80233,-1.80174 3.58683,-3.12572 0.78443,-1.32395 1.17667,-2.76881 1.17669,-4.33456 -2e-5,-1.58875 -0.37808,-2.97603 -1.13416,-4.16186 -0.75615,-1.1858 -2.00374,-2.18165 -3.74277,-2.98756 -1.11529,-0.52957 -3.58212,-1.35273 -7.40048,-2.4695 -3.81839,-1.11671 -6.49315,-2.17013 -8.02427,-3.16025 -1.98482,-1.26637 -3.46396,-2.83787 -4.43745,-4.71449 -0.9735,-1.87654 -1.46025,-3.97762 -1.46025,-6.30323 0,-2.55579 0.59544,-4.9447 1.78632,-7.1667 1.19088,-2.22192 2.92994,-3.90854 5.21719,-5.05986 2.28724,-1.15124 4.82967,-1.72687 7.62732,-1.72692 3.08114,5e-5 5.79843,0.60447 8.15187,1.81326 2.35337,1.20889 3.20351,2.27851 4.31194,3.99469 -1.76994,0.61604 -1.78499,1.90773 -3.87455,3.22105 -2.30586,-3.4234 -5.16786,-3.1229 -8.36243,-3.12296 -3.32692,6e-5 -5.75122,0.74262 -7.27288,2.22773 -1.52169,1.48519 -2.28253,3.27543 -2.28252,5.37071 -1e-5,1.81905 0.53872,3.31571 1.61619,4.48998 1.05855,1.17433 3.8231,2.37741 8.29365,3.60926 4.4705,1.23188 7.53749,2.30833 9.20097,3.22933 2.41954,1.35853 4.20585,3.07969 5.35896,5.16347 1.15304,2.08384 1.72958,4.48424 1.72962,7.20124 -4e-5,2.694 -0.63329,5.23257 -1.89974,7.6157 -1.26653,2.38314 -3.08593,4.2367 -5.45821,5.56066 -2.37233,1.32397 -5.04237,1.98596 -8.01009,1.98596 -3.76169,0 -6.91374,-0.66774 -9.45617,-2.00322 -2.54244,-1.33548 -4.53669,-3.34446 -5.98276,-6.02694 2.56258,-2.21487 2.0559,-1.84094 4.62175,-3.41929 z"
         id="path3837"
         inkscape:connector-curvature="0"
         sodipodi:nodetypes="ccsscccccccsccccccccsccccccssscc"
         style="font-size:64.08997345px;font-style:normal;font-weight:normal;line-height:125%;letter-spacing:0px;word-spacing:0px;fill:#ffffff;fill-opacity:1;stroke:none;font-family:Sans" />
      <path
         d="m 204.39776,945.50515 c 0.89788,1.62331 2.29196,2.93577 4.18227,3.93736 1.89027,1.00162 4.01684,1.50242 6.37971,1.50242 2.09821,0 3.95068,-0.37991 5.55745,-1.13976 1.60672,-0.75984 2.80233,-1.80174 3.58683,-3.12572 0.78443,-1.32395 1.17667,-2.76881 1.17669,-4.33456 -2e-5,-1.58875 -0.37808,-2.97603 -1.13416,-4.16186 -0.75615,-1.1858 -2.00374,-2.18165 -3.74277,-2.98756 -1.11529,-0.52957 -3.58212,-1.35273 -7.40048,-2.4695 -3.81839,-1.11671 -6.49315,-2.17013 -8.02427,-3.16025 -1.98482,-1.26637 -3.46396,-2.83787 -4.43745,-4.71449 -0.9735,-1.87654 -1.46025,-3.97762 -1.46025,-6.30323 0,-2.55579 0.59544,-4.9447 1.78632,-7.1667 1.19088,-2.22192 2.92994,-3.90854 5.21719,-5.05986 2.28724,-1.15124 4.82967,-1.72687 7.62732,-1.72692 3.08114,5e-5 5.79843,0.60447 8.15187,1.81326 2.35337,1.20889 3.20351,2.27851 4.31194,3.99469 -1.76994,0.61604 -1.78499,1.90773 -3.87455,3.22105 -2.30586,-3.4234 -5.16786,-3.1229 -8.36243,-3.12296 -3.32692,6e-5 -5.75122,0.74262 -7.27288,2.22773 -1.52169,1.48519 -2.28253,3.27543 -2.28252,5.37071 -1e-5,1.81905 0.53872,3.31571 1.61619,4.48998 1.05855,1.17433 3.8231,2.37741 8.29365,3.60926 4.4705,1.23188 7.53749,2.30833 9.20097,3.22933 2.41954,1.35853 4.20585,3.07969 5.35896,5.16347 1.15304,2.08384 1.72958,4.48424 1.72962,7.20124 -4e-5,2.694 -0.63329,5.23257 -1.89974,7.6157 -1.26653,2.38314 -3.08593,4.2367 -5.45821,5.56066 -2.37233,1.32397 -5.04237,1.98596 -8.01009,1.98596 -3.76169,0 -6.91374,-0.66774 -9.45617,-2.00322 -2.54244,-1.33548 -4.53669,-3.34446 -5.98276,-6.02694 2.56258,-2.21487 2.0559,-1.84094 4.62175,-3.41929 z"
         id="path3964"
         inkscape:connector-curvature="0"
         sodipodi:nodetypes="ccsscccccccsccccccccsccccccssscc"
         style="font-size:64.08997345px;font-style:normal;font-weight:normal;line-height:125%;letter-spacing:0px;word-spacing:0px;fill:#ffffff;fill-opacity:0.21600001;stroke:none;filter:url(#filter3950);font-family:Sans" />
    </g>
    <g
       id="g4006"
       transform="matrix(1,0,0,0.89347545,0,95.893116)">
      <path
         inkscape:connector-curvature="0"
         id="path3883"
         style="font-size:64.08997345px;font-style:normal;font-weight:normal;line-height:125%;letter-spacing:0px;word-spacing:0px;fill:#000000;fill-opacity:0.37999998;stroke:none;filter:url(#filter3950);font-family:Sans"
         d="m 237.38919,953.86503 0,-50.63317 5.50074,0 0,50.63317 z" />
      <path
         d="m 239.38919,955.86503 0,-50.63317 5.50074,0 0,50.63317 z"
         style="font-size:64.08997345px;font-style:normal;font-weight:normal;line-height:125%;letter-spacing:0px;word-spacing:0px;fill:#ffffff;fill-opacity:1;stroke:none;font-family:Sans"
         id="path3839"
         inkscape:connector-curvature="0" />
      <path
         d="m 241.08927,956.09115 0,-50.63317 5.50074,0 0,50.63317 z"
         style="font-size:64.08997345px;font-style:normal;font-weight:normal;line-height:125%;letter-spacing:0px;word-spacing:0px;fill:#ffffff;fill-opacity:0.21600001;stroke:none;filter:url(#filter3950);font-family:Sans"
         id="path3966"
         inkscape:connector-curvature="0" />
    </g>
    <g
       id="g4001"
       transform="matrix(1,0,0,0.89347545,0,95.893116)">
      <path
         style="font-size:64.08997345px;font-style:normal;font-weight:normal;line-height:125%;letter-spacing:0px;word-spacing:0px;fill:#000000;fill-opacity:0.37999998;stroke:none;filter:url(#filter3950);font-family:Sans"
         sodipodi:nodetypes="sscccccsssssssssccccss"
         inkscape:connector-curvature="0"
         id="path3885"
         d="m 254.00375,929.20467 c 0,-8.40429 0.73457,-14.98384 4.43954,-19.73864 3.70495,-4.75473 8.48738,-7.13212 14.34728,-7.13217 3.83726,5e-5 7.29648,1.11679 10.37768,3.35022 3.08114,2.23352 5.42982,5.34772 7.04605,9.34261 1.61615,3.99496 1.30635,8.52524 1.30639,13.59082 -4e-5,5.13472 0.26723,9.72831 -1.43398,13.78079 -1.7013,4.05251 -4.11142,7.12066 -7.23035,9.20446 -3.11901,2.08381 -6.48372,3.12572 -10.09414,3.12572 -3.91292,0 -7.40995,-1.15128 -10.4911,-3.45383 -3.08118,-2.30255 -5.41568,-5.44553 -7.00351,-9.42896 -1.58785,-3.9834 -1.26386,-8.19708 -1.26386,-12.64102 z m 5.67086,0.10363 c -10e-6,6.10179 0.22892,10.90837 2.92259,14.41975 2.69364,3.5114 6.07253,5.2671 10.13666,5.26709 4.13971,10e-6 7.54695,-1.77295 10.22174,-5.31889 2.67472,-3.54593 2.8942,-8.577 2.89423,-15.09325 -3e-5,-4.12155 0.54605,-7.71928 -0.59754,-10.79323 -1.14365,-3.07386 -2.81655,-5.457 -5.01871,-7.14942 -2.20221,-1.69233 -4.67376,-2.53852 -7.41465,-2.53858 -3.89402,6e-5 -7.24454,1.62912 -10.0516,4.88719 -2.80709,3.25814 -3.09273,8.69792 -3.09272,16.31934 z" />
      <path
         d="m 256.00375,931.20467 c 0,-8.40429 0.73457,-14.98384 4.43954,-19.73864 3.70495,-4.75473 8.48738,-7.13212 14.34728,-7.13217 3.83726,5e-5 7.29648,1.11679 10.37768,3.35022 3.08114,2.23352 5.42982,5.34772 7.04605,9.34261 1.61615,3.99496 1.30635,8.52524 1.30639,13.59082 -4e-5,5.13472 0.26723,9.72831 -1.43398,13.78079 -1.7013,4.05251 -4.11142,7.12066 -7.23035,9.20446 -3.11901,2.08381 -6.48372,3.12572 -10.09414,3.12572 -3.91292,0 -7.40995,-1.15128 -10.4911,-3.45383 -3.08118,-2.30255 -5.41568,-5.44553 -7.00351,-9.42896 -1.58785,-3.9834 -1.26386,-8.19708 -1.26386,-12.64102 z m 5.67086,0.10363 c -10e-6,6.10179 0.22892,10.90837 2.92259,14.41975 2.69364,3.5114 6.07253,5.2671 10.13666,5.26709 4.13971,10e-6 7.54695,-1.77295 10.22174,-5.31889 2.67472,-3.54593 2.8942,-8.577 2.89423,-15.09325 -3e-5,-4.12155 0.54605,-7.71928 -0.59754,-10.79323 -1.14365,-3.07386 -2.81655,-5.457 -5.01871,-7.14942 -2.20221,-1.69233 -4.67376,-2.53852 -7.41465,-2.53858 -3.89402,6e-5 -7.24454,1.62912 -10.0516,4.88719 -2.80709,3.25814 -3.09273,8.69792 -3.09272,16.31934 z"
         id="path3841"
         inkscape:connector-curvature="0"
         sodipodi:nodetypes="sscccccsssssssssccccss"
         style="font-size:64.08997345px;font-style:normal;font-weight:normal;line-height:125%;letter-spacing:0px;word-spacing:0px;fill:#ffffff;fill-opacity:1;stroke:none;font-family:Sans" />
      <path
         d="m 257.70383,931.43079 c 0,-8.40429 0.73457,-14.98384 4.43954,-19.73864 3.70495,-4.75473 8.48738,-7.13212 14.34728,-7.13217 3.83726,5e-5 7.29648,1.11679 10.37768,3.35022 3.08114,2.23352 5.42982,5.34772 7.04605,9.34261 1.61615,3.99496 1.30635,8.52524 1.30639,13.59082 -4e-5,5.13472 0.26723,9.72831 -1.43398,13.78079 -1.7013,4.05251 -4.11142,7.12066 -7.23035,9.20446 -3.11901,2.08381 -6.48372,3.12572 -10.09414,3.12572 -3.91292,0 -7.40995,-1.15128 -10.4911,-3.45383 -3.08118,-2.30255 -5.41568,-5.44553 -7.00351,-9.42896 -1.58785,-3.9834 -1.26386,-8.19708 -1.26386,-12.64102 z m 5.67086,0.10363 c -10e-6,6.10179 0.22892,10.90837 2.92259,14.41975 2.69364,3.5114 6.07253,5.2671 10.13666,5.26709 4.13971,10e-6 7.54695,-1.77295 10.22174,-5.31889 2.67472,-3.54593 2.8942,-8.577 2.89423,-15.09325 -3e-5,-4.12155 0.54605,-7.71928 -0.59754,-10.79323 -1.14365,-3.07386 -2.81655,-5.457 -5.01871,-7.14942 -2.20221,-1.69233 -4.67376,-2.53852 -7.41465,-2.53858 -3.89402,6e-5 -7.24454,1.62912 -10.0516,4.88719 -2.80709,3.25814 -3.09273,8.69792 -3.09272,16.31934 z"
         id="path3968"
         inkscape:connector-curvature="0"
         sodipodi:nodetypes="sscccccsssssssssccccss"
         style="font-size:64.08997345px;font-style:normal;font-weight:normal;line-height:125%;letter-spacing:0px;word-spacing:0px;fill:#ffffff;fill-opacity:0.21600001;stroke:none;filter:url(#filter3950);font-family:Sans" />
    </g>
    <g
       id="g3996"
       transform="matrix(1,0,0,0.89347545,0,95.893116)">
      <path
         inkscape:connector-curvature="0"
         id="path3887"
         style="font-size:64.08997345px;font-style:normal;font-weight:normal;line-height:125%;letter-spacing:0px;word-spacing:0px;fill:#000000;fill-opacity:0.37999998;stroke:none;filter:url(#filter3950);font-family:Sans"
         d="m 301.64212,953.86503 0,-50.63317 5.6425,0 21.83283,39.7536 0,-39.7536 5.2739,0 0,50.63317 -5.64251,0 -21.83282,-39.78814 0,39.78814 z" />
      <path
         d="m 303.64212,955.86503 0,-50.63317 5.6425,0 21.83283,39.7536 0,-39.7536 5.2739,0 0,50.63317 -5.64251,0 -21.83282,-39.78814 0,39.78814 z"
         style="font-size:64.08997345px;font-style:normal;font-weight:normal;line-height:125%;letter-spacing:0px;word-spacing:0px;fill:#ffffff;fill-opacity:1;stroke:none;font-family:Sans"
         id="path3843"
         inkscape:connector-curvature="0" />
      <path
         d="m 305.3422,956.09115 0,-50.63317 5.6425,0 21.83283,39.7536 0,-39.7536 5.2739,0 0,50.63317 -5.64251,0 -21.83282,-39.78814 0,39.78814 z"
         style="font-size:64.08997345px;font-style:normal;font-weight:normal;line-height:125%;letter-spacing:0px;word-spacing:0px;fill:#ffffff;fill-opacity:0.21600001;stroke:none;filter:url(#filter3950);font-family:Sans"
         id="path3970"
         inkscape:connector-curvature="0" />
    </g>
    <g
       id="g4036"
       transform="matrix(1,0,0,0.89347545,0,95.893116)">
      <path
         style="font-size:64.08997345px;font-style:normal;font-weight:normal;line-height:125%;letter-spacing:0px;word-spacing:0px;fill:#000000;fill-opacity:0.37999998;stroke:none;filter:url(#filter3950);font-family:Sans"
         d="m 349.26806,943.7501 c 0.89788,1.62331 2.29196,2.93576 4.18226,3.93736 1.89027,1.00161 4.01685,1.50242 6.37972,1.50242 2.0982,0 3.95068,-0.37992 5.55745,-1.13977 1.60672,-0.75983 2.80233,-1.80173 3.58682,-3.12571 0.78444,-1.32396 1.17667,-2.76881 1.1767,-4.33456 -3e-5,-1.58875 -0.37808,-2.97604 -1.13416,-4.16187 -0.75615,-1.1858 -2.00374,-2.18164 -3.74278,-2.98756 -1.11529,-0.52956 -3.58211,-1.35273 -7.40048,-2.46949 -3.81839,-1.11671 -6.49314,-2.17013 -8.02426,-3.16025 -1.98482,-1.26638 -3.46396,-2.83788 -4.43745,-4.71449 -0.97351,-1.87655 -1.46025,-3.97762 -1.46025,-6.30324 0,-2.55579 0.59543,-4.94469 1.78632,-7.1667 1.19088,-2.22192 2.92994,-3.90854 5.21719,-5.05986 2.28723,-1.15123 4.82967,-1.72686 7.62731,-1.72692 3.08115,6e-5 5.79844,0.60447 8.15187,1.81326 2.35338,1.2089 3.20352,2.27851 4.31195,3.99469 -1.76995,0.61604 -1.785,1.90774 -3.87455,3.22106 -2.30586,-3.4234 -5.16787,-3.12291 -8.36243,-3.12296 -3.32693,5e-5 -5.75122,0.74262 -7.27288,2.22772 -1.52169,1.48519 -2.28253,3.27543 -2.28252,5.37071 -1e-5,1.81906 0.53872,3.31572 1.61619,4.48998 1.05855,1.17433 3.82309,2.37742 8.29364,3.60926 4.47051,1.23189 7.5375,2.30834 9.20098,3.22933 2.41953,1.35853 4.20585,3.07969 5.35896,5.16347 1.15304,2.08384 1.72958,4.48424 1.72961,7.20125 -3e-5,2.69399 -0.63328,5.23256 -1.89973,7.61569 -1.26654,2.38315 -3.08593,4.2367 -5.45822,5.56067 -2.37233,1.32397 -5.04236,1.98597 -8.01009,1.98597 -3.76168,0 -6.91374,-0.66775 -9.45616,-2.00323 -2.54245,-1.33548 -4.53669,-3.34447 -5.98276,-6.02695 2.56257,-2.21486 2.05589,-1.84094 4.62175,-3.41928 z"
         id="path3889"
         inkscape:connector-curvature="0"
         sodipodi:nodetypes="ccsscccccccsccccccccsccccccssscc" />
      <path
         sodipodi:nodetypes="ccsscccccccsccccccccsccccccssscc"
         inkscape:connector-curvature="0"
         id="path3837-1"
         d="m 351.26806,945.7501 c 0.89788,1.62331 2.29196,2.93576 4.18226,3.93736 1.89027,1.00161 4.01685,1.50242 6.37972,1.50242 2.0982,0 3.95068,-0.37992 5.55745,-1.13977 1.60672,-0.75983 2.80233,-1.80173 3.58682,-3.12571 0.78444,-1.32396 1.17667,-2.76881 1.1767,-4.33456 -3e-5,-1.58875 -0.37808,-2.97604 -1.13416,-4.16187 -0.75615,-1.1858 -2.00374,-2.18164 -3.74278,-2.98756 -1.11529,-0.52956 -3.58211,-1.35273 -7.40048,-2.46949 -3.81839,-1.11671 -6.49314,-2.17013 -8.02426,-3.16025 -1.98482,-1.26638 -3.46396,-2.83788 -4.43745,-4.71449 -0.97351,-1.87655 -1.46025,-3.97762 -1.46025,-6.30324 0,-2.55579 0.59543,-4.94469 1.78632,-7.1667 1.19088,-2.22192 2.92994,-3.90854 5.21719,-5.05986 2.28723,-1.15123 4.82967,-1.72686 7.62731,-1.72692 3.08115,6e-5 5.79844,0.60447 8.15187,1.81326 2.35338,1.2089 3.20352,2.27851 4.31195,3.99469 -1.76995,0.61604 -1.785,1.90774 -3.87455,3.22106 -2.30586,-3.4234 -5.16787,-3.12291 -8.36243,-3.12296 -3.32693,5e-5 -5.75122,0.74262 -7.27288,2.22772 -1.52169,1.48519 -2.28253,3.27543 -2.28252,5.37071 -1e-5,1.81906 0.53872,3.31572 1.61619,4.48998 1.05855,1.17433 3.82309,2.37742 8.29364,3.60926 4.47051,1.23189 7.5375,2.30834 9.20098,3.22933 2.41953,1.35853 4.20585,3.07969 5.35896,5.16347 1.15304,2.08384 1.72958,4.48424 1.72961,7.20125 -3e-5,2.69399 -0.63328,5.23256 -1.89973,7.61569 -1.26654,2.38315 -3.08593,4.2367 -5.45822,5.56067 -2.37233,1.32397 -5.04236,1.98597 -8.01009,1.98597 -3.76168,0 -6.91374,-0.66775 -9.45616,-2.00323 -2.54245,-1.33548 -4.53669,-3.34447 -5.98276,-6.02695 2.56257,-2.21486 2.05589,-1.84094 4.62175,-3.41928 z"
         style="font-size:64.08997345px;font-style:normal;font-weight:normal;line-height:125%;letter-spacing:0px;word-spacing:0px;fill:#ffffff;fill-opacity:1;stroke:none;font-family:Sans" />
      <path
         sodipodi:nodetypes="ccsscccccccsccccccccsccccccssscc"
         inkscape:connector-curvature="0"
         id="path3972"
         d="m 352.96814,945.97622 c 0.89788,1.62331 2.29196,2.93576 4.18226,3.93736 1.89027,1.00161 4.01685,1.50242 6.37972,1.50242 2.0982,0 3.95068,-0.37992 5.55745,-1.13977 1.60672,-0.75983 2.80233,-1.80173 3.58682,-3.12571 0.78444,-1.32396 1.17667,-2.76881 1.1767,-4.33456 -3e-5,-1.58875 -0.37808,-2.97604 -1.13416,-4.16187 -0.75615,-1.1858 -2.00374,-2.18164 -3.74278,-2.98756 -1.11529,-0.52956 -3.58211,-1.35273 -7.40048,-2.46949 -3.81839,-1.11671 -6.49314,-2.17013 -8.02426,-3.16025 -1.98482,-1.26638 -3.46396,-2.83788 -4.43745,-4.71449 -0.97351,-1.87655 -1.46025,-3.97762 -1.46025,-6.30324 0,-2.55579 0.59543,-4.94469 1.78632,-7.1667 1.19088,-2.22192 2.92994,-3.90854 5.21719,-5.05986 2.28723,-1.15123 4.82967,-1.72686 7.62731,-1.72692 3.08115,6e-5 5.79844,0.60447 8.15187,1.81326 2.35338,1.2089 3.20352,2.27851 4.31195,3.99469 -1.76995,0.61604 -1.785,1.90774 -3.87455,3.22106 -2.30586,-3.4234 -5.16787,-3.12291 -8.36243,-3.12296 -3.32693,5e-5 -5.75122,0.74262 -7.27288,2.22772 -1.52169,1.48519 -2.28253,3.27543 -2.28252,5.37071 -1e-5,1.81906 0.53872,3.31572 1.61619,4.48998 1.05855,1.17433 3.82309,2.37742 8.29364,3.60926 4.47051,1.23189 7.5375,2.30834 9.20098,3.22933 2.41953,1.35853 4.20585,3.07969 5.35896,5.16347 1.15304,2.08384 1.72958,4.48424 1.72961,7.20125 -3e-5,2.69399 -0.63328,5.23256 -1.89973,7.61569 -1.26654,2.38315 -3.08593,4.2367 -5.45822,5.56067 -2.37233,1.32397 -5.04236,1.98597 -8.01009,1.98597 -3.76168,0 -6.91374,-0.66775 -9.45616,-2.00323 -2.54245,-1.33548 -4.53669,-3.34447 -5.98276,-6.02695 2.56257,-2.21486 2.05589,-1.84094 4.62175,-3.41928 z"
         style="font-size:64.08997345px;font-style:normal;font-weight:normal;line-height:125%;letter-spacing:0px;word-spacing:0px;fill:#ffffff;fill-opacity:0.21600001;stroke:none;filter:url(#filter3950);font-family:Sans" />
    </g>
  </g>
</svg>
