<?xml version="1.0" encoding="UTF-8" standalone="no"?>
<!-- Created with Inkscape (http://www.inkscape.org/) -->

<svg
   xmlns:dc="http://purl.org/dc/elements/1.1/"
   xmlns:cc="http://creativecommons.org/ns#"
   xmlns:rdf="http://www.w3.org/1999/02/22-rdf-syntax-ns#"
   xmlns:svg="http://www.w3.org/2000/svg"
   xmlns="http://www.w3.org/2000/svg"
   xmlns:sodipodi="http://sodipodi.sourceforge.net/DTD/sodipodi-0.dtd"
   xmlns:inkscape="http://www.inkscape.org/namespaces/inkscape"
   width="22"
   height="22"
   id="svg2"
   version="1.1"
   inkscape:version="0.48.4 r9939"
   sodipodi:docname="mag.svg">
  <defs
     id="defs4" />
  <sodipodi:namedview
     id="base"
     pagecolor="#ffffff"
     bordercolor="#666666"
     borderopacity="1.0"
     inkscape:pageopacity="0.0"
     inkscape:pageshadow="2"
     inkscape:zoom="7.9195959"
     inkscape:cx="-7.5232861"
     inkscape:cy="6.8398204"
     inkscape:document-units="px"
     inkscape:current-layer="layer1"
     showgrid="false"
     inkscape:window-width="842"
     inkscape:window-height="648"
     inkscape:window-x="404"
     inkscape:window-y="220"
     inkscape:window-maximized="0" />
  <metadata
     id="metadata7">
    <rdf:RDF>
      <cc:Work
         rdf:about="">
        <dc:format>image/svg+xml</dc:format>
        <dc:type
           rdf:resource="http://purl.org/dc/dcmitype/StillImage" />
        <dc:title></dc:title>
      </cc:Work>
    </rdf:RDF>
  </metadata>
  <g
     inkscape:label="Layer 1"
     inkscape:groupmode="layer"
     id="layer1"
     transform="translate(0,-1030.3622)">
    <path
       style="fill:#134a82;fill-opacity:1"
       d="m 14.636422,1031.731 c -3.589851,0 -6.5000004,2.9102 -6.5000004,6.5 0,3.5899 2.9101494,6.5 6.5000004,6.5 3.589851,0 6.5,-2.9101 6.5,-6.5 0,-3.5898 -2.910149,-6.5 -6.5,-6.5 z m 0,2 c 2.485281,0 4.5,2.0148 4.5,4.5 0,2.4853 -2.014719,4.5 -4.5,4.5 -2.485281,0 -4.5,-2.0147 -4.5,-4.5 0,-2.4852 2.014719,-4.5 4.5,-4.5 z"
       id="path2985"
       inkscape:connector-curvature="0" />
    <rect
       style="fill:#134a82;fill-opacity:1"
       id="rect2992"
       width="3.2308416"
       height="9.9011011"
       x="742.69568"
       y="730.69971"
       transform="matrix(0.70710678,0.70710678,-0.70710678,0.70710678,0,0)"
       ry="1.25" />
  </g>
</svg>
