<?xml version="1.0" encoding="UTF-8" standalone="no"?>
<!-- Created with Inkscape (http://www.inkscape.org/) -->

<svg
   xmlns:dc="http://purl.org/dc/elements/1.1/"
   xmlns:cc="http://creativecommons.org/ns#"
   xmlns:rdf="http://www.w3.org/1999/02/22-rdf-syntax-ns#"
   xmlns:svg="http://www.w3.org/2000/svg"
   xmlns="http://www.w3.org/2000/svg"
   xmlns:sodipodi="http://sodipodi.sourceforge.net/DTD/sodipodi-0.dtd"
   xmlns:inkscape="http://www.inkscape.org/namespaces/inkscape"
   width="25"
   height="38"
   id="svg4960"
   version="1.1"
   inkscape:version="0.48.4 r9939"
   sodipodi:docname="pin.svg">
  <defs
     id="defs4962">
    <filter
       inkscape:collect="always"
       id="filter3801"
       x="-0.26880771"
       width="1.5376154"
       y="-0.50535846"
       height="2.0107169"
       color-interpolation-filters="sRGB">
      <feGaussianBlur
         inkscape:collect="always"
         stdDeviation="1.3293989"
         id="feGaussianBlur3803" />
    </filter>
  </defs>
  <sodipodi:namedview
     id="base"
     pagecolor="#ffffff"
     bordercolor="#666666"
     borderopacity="1.0"
     inkscape:pageopacity="0.0"
     inkscape:pageshadow="2"
     inkscape:zoom="5.3673824"
     inkscape:cx="25.711093"
     inkscape:cy="21.244216"
     inkscape:document-units="px"
     inkscape:current-layer="layer1"
     showgrid="false"
     inkscape:window-width="708"
     inkscape:window-height="514"
     inkscape:window-x="551"
     inkscape:window-y="195"
     inkscape:window-maximized="0" />
  <metadata
     id="metadata4965">
    <rdf:RDF>
      <cc:Work
         rdf:about="">
        <dc:format>image/svg+xml</dc:format>
        <dc:type
           rdf:resource="http://purl.org/dc/dcmitype/StillImage" />
        <dc:title />
      </cc:Work>
    </rdf:RDF>
  </metadata>
  <g
     inkscape:label="Layer 1"
     inkscape:groupmode="layer"
     id="layer1"
     transform="translate(0,-1014.3622)">
    <path
       sodipodi:type="arc"
       style="opacity:0.16749998;fill:#000000;fill-opacity:1;stroke:none;filter:url(#filter3801)"
       id="path3767"
       sodipodi:cx="13.258252"
       sodipodi:cy="32.256977"
       sodipodi:rx="5.9346461"
       sodipodi:ry="3.1567268"
       d="m 19.192898,32.256977 c 0,1.743412 -2.657031,3.156727 -5.934646,3.156727 -3.2776144,0 -5.934646,-1.413315 -5.934646,-3.156727 0,-1.743412 2.6570316,-3.156727 5.934646,-3.156727 3.187234,0 5.805337,1.339122 5.930098,3.03316"
       transform="matrix(0.75119372,0,0,0.75119372,2.6017349,1019.3629)"
       sodipodi:start="0"
       sodipodi:end="6.2440314"
       sodipodi:open="true" />
    <path
       inkscape:connector-curvature="0"
       style="fill:#0f335d;fill-opacity:1;stroke:none"
       d="M 12.607107,1016.3622 C 7.8686966,1016.3622 4,1020.1008 4,1024.67 c 0,1.7434 0.026757,3.1453 1.5141514,5.6872 2.4122672,4.1228 6.9228556,11.874 6.9228556,11.874 0,0 3.84489,-6.9675 6.644935,-11.5389 1.884252,-3.0763 1.921345,-3.9603 1.921345,-5.8522 0,-4.7384 -3.657771,-8.4779 -8.39618,-8.4779 z m -0.07485,3.0619 c 2.956218,0 5.381944,2.3327 5.497663,5.2867 l 0.0068,0.2177 c 0,3.0401 -2.464416,5.5046 -5.504465,5.5046 -3.0400482,0 -5.5044648,-2.4645 -5.5044648,-5.5046 0,-3.0401 2.4644166,-5.5044 5.5044648,-5.5044 z"
       id="path4432"
       sodipodi:nodetypes="zsscsszsccssss" />
  </g>
</svg>
