<?xml version="1.0" encoding="UTF-8" standalone="no"?>
<!-- Created with Inkscape (http://www.inkscape.org/) -->

<svg
   xmlns:dc="http://purl.org/dc/elements/1.1/"
   xmlns:cc="http://creativecommons.org/ns#"
   xmlns:rdf="http://www.w3.org/1999/02/22-rdf-syntax-ns#"
   xmlns:svg="http://www.w3.org/2000/svg"
   xmlns="http://www.w3.org/2000/svg"
   xmlns:sodipodi="http://sodipodi.sourceforge.net/DTD/sodipodi-0.dtd"
   xmlns:inkscape="http://www.inkscape.org/namespaces/inkscape"
   width="30"
   height="44"
   id="svg4960"
   version="1.1"
   inkscape:version="0.48.4 r9939"
   sodipodi:docname="pin.svg">
  <defs
     id="defs4962">
    <filter
       inkscape:collect="always"
       id="filter3763">
      <feGaussianBlur
         inkscape:collect="always"
         stdDeviation="0.25166615"
         id="feGaussianBlur3765" />
    </filter>
    <filter
       inkscape:collect="always"
       id="filter3801"
       x="-0.26880771"
       width="1.5376154"
       y="-0.50535847"
       height="2.0107169">
      <feGaussianBlur
         inkscape:collect="always"
         stdDeviation="1.3293989"
         id="feGaussianBlur3803" />
    </filter>
  </defs>
  <sodipodi:namedview
     id="base"
     pagecolor="#ffffff"
     bordercolor="#666666"
     borderopacity="1.0"
     inkscape:pageopacity="0.0"
     inkscape:pageshadow="2"
     inkscape:zoom="3.959798"
     inkscape:cx="25.711093"
     inkscape:cy="4.6629916"
     inkscape:document-units="px"
     inkscape:current-layer="layer1"
     showgrid="false"
     inkscape:window-width="708"
     inkscape:window-height="514"
     inkscape:window-x="551"
     inkscape:window-y="195"
     inkscape:window-maximized="0" />
  <metadata
     id="metadata4965">
    <rdf:RDF>
      <cc:Work
         rdf:about="">
        <dc:format>image/svg+xml</dc:format>
        <dc:type
           rdf:resource="http://purl.org/dc/dcmitype/StillImage" />
        <dc:title />
      </cc:Work>
    </rdf:RDF>
  </metadata>
  <g
     inkscape:label="Layer 1"
     inkscape:groupmode="layer"
     id="layer1"
     transform="translate(0,-1008.3622)">
    <path
       sodipodi:type="arc"
       style="opacity:0.16749998999999999;fill:#000000;fill-opacity:1;stroke:none;filter:url(#filter3801)"
       id="path3767"
       sodipodi:cx="13.258252"
       sodipodi:cy="32.256977"
       sodipodi:rx="5.9346461"
       sodipodi:ry="3.1567268"
       d="M 19.192898,32.256977 A 5.9346461,3.1567268 0 1 1 19.18835,32.13341"
       transform="matrix(0.76447062,0,0,0.76447062,3.1227079,1014.697)"
       sodipodi:start="0"
       sodipodi:end="6.2440314"
       sodipodi:open="true" />
    <path
       inkscape:connector-curvature="0"
       style="fill:#0f335d;fill-opacity:1;stroke:none"
       d="m 13.304918,1011.6433 c -4.8221579,0 -8.7592315,3.8046 -8.7592315,8.4546 0,1.7743 0.02723,3.2009 1.5409131,5.7878 2.4549026,4.1956 7.0452114,12.0838 7.0452114,12.0838 0,0 3.912847,-7.0907 6.762382,-11.7429 1.917556,-3.1306 1.955303,-4.0302 1.955303,-5.9556 0,-4.8222 -3.722421,-8.6277 -8.544578,-8.6277 z m -0.07617,3.116 c 3.008468,0 5.477066,2.3739 5.59483,5.3801 l 0.0069,0.2216 c 0,3.0938 -2.507973,5.6018 -5.601753,5.6018 -3.093779,0 -5.6017527,-2.508 -5.6017527,-5.6018 0,-3.0938 2.5079737,-5.6017 5.6017527,-5.6017 z"
       id="path4432"
       sodipodi:nodetypes="zsscsszsccssss" />
  </g>
</svg>
