<?xml version="1.0" encoding="UTF-8" standalone="no"?>
<!-- Created with Inkscape (http://www.inkscape.org/) -->

<svg
   xmlns:dc="http://purl.org/dc/elements/1.1/"
   xmlns:cc="http://creativecommons.org/ns#"
   xmlns:rdf="http://www.w3.org/1999/02/22-rdf-syntax-ns#"
   xmlns:svg="http://www.w3.org/2000/svg"
   xmlns="http://www.w3.org/2000/svg"
   xmlns:sodipodi="http://sodipodi.sourceforge.net/DTD/sodipodi-0.dtd"
   xmlns:inkscape="http://www.inkscape.org/namespaces/inkscape"
   width="16.46875"
   height="19.40061"
   id="svg3890"
   version="1.1"
   inkscape:version="0.48.4 r9939"
   sodipodi:docname="refresh.svg">
  <defs
     id="defs3892" />
  <sodipodi:namedview
     id="base"
     pagecolor="#4392c7"
     bordercolor="#666666"
     borderopacity="1.0"
     inkscape:pageopacity="1"
     inkscape:pageshadow="2"
     inkscape:zoom="15.839192"
     inkscape:cx="3.8169699"
     inkscape:cy="13.217225"
     inkscape:document-units="px"
     inkscape:current-layer="layer1"
     showgrid="false"
     fit-margin-top="0"
     fit-margin-left="0"
     fit-margin-right="0"
     fit-margin-bottom="0"
     inkscape:window-width="708"
     inkscape:window-height="423"
     inkscape:window-x="432"
     inkscape:window-y="354"
     inkscape:window-maximized="0" />
  <metadata
     id="metadata3895">
    <rdf:RDF>
      <cc:Work
         rdf:about="">
        <dc:format>image/svg+xml</dc:format>
        <dc:type
           rdf:resource="http://purl.org/dc/dcmitype/StillImage" />
        <dc:title></dc:title>
      </cc:Work>
    </rdf:RDF>
  </metadata>
  <g
     inkscape:label="Layer 1"
     inkscape:groupmode="layer"
     id="layer1"
     transform="translate(-366.76562,-522.16188)">
    <path
       sodipodi:nodetypes="cssccssccccc"
       inkscape:connector-curvature="0"
       id="path3905"
       d="m 375.01562,524.81254 c -4.48869,0 -8.25,3.49886 -8.25,7.87495 0,4.3762 3.76131,7.875 8.25,7.875 4.4887,0 8.21875,-3.4988 8.21875,-7.875 l -3,0 c 0,2.6609 -2.26253,4.875 -5.21875,4.875 -2.95621,0 -5.25,-2.2141 -5.25,-4.875 0,-2.66078 2.29379,-4.87495 5.25,-4.87495 l 0,2.51108 4.77744,-4.01108 -4.77744,-4.15066 z"
       style="font-size:medium;font-style:normal;font-variant:normal;font-weight:normal;font-stretch:normal;text-indent:0;text-align:start;text-decoration:none;line-height:normal;letter-spacing:normal;word-spacing:normal;text-transform:none;direction:ltr;block-progression:tb;writing-mode:lr-tb;text-anchor:start;baseline-shift:baseline;color:#000000;fill:#000000;fill-opacity:0.64117647;stroke:none;stroke-width:3;marker:none;visibility:visible;display:inline;overflow:visible;enable-background:accumulate;font-family:Sans;-inkscape-font-specification:Sans" />
    <path
       style="font-size:medium;font-style:normal;font-variant:normal;font-weight:normal;font-stretch:normal;text-indent:0;text-align:start;text-decoration:none;line-height:normal;letter-spacing:normal;word-spacing:normal;text-transform:none;direction:ltr;block-progression:tb;writing-mode:lr-tb;text-anchor:start;baseline-shift:baseline;color:#000000;fill:#ffffff;fill-opacity:1;stroke:none;stroke-width:3;marker:none;visibility:visible;display:inline;overflow:visible;enable-background:accumulate;font-family:Sans;-inkscape-font-specification:Sans"
       d="m 375.01562,525.81254 c -4.48869,0 -8.25,3.49886 -8.25,7.87495 0,4.3762 3.76131,7.875 8.25,7.875 4.4887,0 8.21875,-3.4988 8.21875,-7.875 l -3,0 c 0,2.6609 -2.26253,4.875 -5.21875,4.875 -2.95621,0 -5.25,-2.2141 -5.25,-4.875 0,-2.66078 2.29379,-4.87495 5.25,-4.87495 l 0,2.51108 4.77744,-4.01108 -4.77744,-4.15066 z"
       id="path3105"
       inkscape:connector-curvature="0"
       sodipodi:nodetypes="cssccssccccc" />
  </g>
</svg>
